<?xml version="1.0" encoding="utf-8"?>
<!-- Generator: Adobe Illustrator 18.1.1, SVG Export Plug-In . SVG Version: 6.00 Build 0)  -->
<svg version="1.1" id="Layer_1" xmlns="http://www.w3.org/2000/svg" xmlns:xlink="http://www.w3.org/1999/xlink" x="0px" y="0px"
	 viewBox="0 0 374.5 738.7" enable-background="new 0 0 374.5 738.7" xml:space="preserve">
<path fill="none" stroke="#0D0F0F" stroke-width="2" stroke-miterlimit="10" d="M139.1,224.5c1.2,2.2-0.8,1.1,3.8,4.5
	c5.4,4,16.8,1.3,12.1-3.8c-5.5-6-12.1-2.7,1.7,5.5c17.9,10.7,24.7-10.7,21.4-8c-3.3,2.7-1,9.8,3.8,5.5c4.8-4.3,5.7-7,8.6-6.2
	c2.9,0.8,12,14.8,20.8,18.4c8.8,3.5,20.6-4.2,19.7-10c-0.8-5.8-1.7-6.3-4.1,0.7c-2.5,7-2.1,10.8-3.1,21.8c-1,11.1,0,15.2-10.4,28.4
	c-10.4,13.3-19.2,23.3-16.9,12.8c1.3-6.2,6.8-12.5,10.7-22.2c4.8-11.6,1.2-16.7-4.1-13.5c-5.3,3.2-9.7-3.9-19-5.2
	c-9.3-1.3-10.3,0.5-16.9,0.7c-6.7,0.2-5.9-15.7-1.4-17c4.6-1.3,5.1,4.6,5.9,8.7c1.6,8.2-1.3,10.6-11.4,8.7
	c-8.4-1.5-13.1,1.8-19.7,6.6s-12.9,9.8-15.6,6.6c-2.7-3.2,1.2-3,12.5,1c11.3,4.1,17.6,6.9,25.9,3.8c8.4-3.1,12.9,0.1,18.3-0.4
	c5.5-0.5,10.5-5.9,14.5-9c4-3.1,8.6,0.3,4.5,0.4s-5.2,1.1-13.5-2.4c-5.2-2.2-6.3-4.1-12.1-1.4c-6.8,3.1-8.5,3.7-15.2,2.1
	c-5.5-1.3-10.9-1.3-14.5,0.3c-3.6,1.6-18.2,10.2-25.9,6.6c-16.1-7.6,0.9,14.8-14,9.2c-13.5-5.1-14-3-9.5,5
	c4.8,8.7,12,23.9,24.2,34.3c9,7.6,22.2,16.3,45,13.9c23-2.5,40.1-18.3,52.6-36c12.7-18.1,19.8-29.9,20.8-43
	c0.8-10.9-2.6-51.1-0.4-62.7c2.3-12.1,6.8-26.4,8.3-21.8c1.5,4.5,1.7,8.9,1,18c-0.6,9.2-3.3,24.6-5.5,31.9c-2.3,7.3-2.7,0-3.5-6.6
	c-0.8-6.6,0.9-31.7,3.1-47.8c2.2-16.2,5.2-20.5,4.8-38.8c-0.4-18.4-1.8-36-8.3-46.1c-6.5-10.1-7.9-5.9-11.7-22.9
	c-3.9-16.9-8.4-26.2-15.6-31.5c-7.2-5.4-15.5-11.2-29.1-14.6c-13.6-3.3-35.1-9.5-50.5-7.6c-15.4,1.9-33.5,9.5-40.8,14.6
	C83,21,85.2,18.4,71.3,28S45.8,42.1,39.2,54c-6.6,11.9-10.3,29.9-8,47.5c1.4,10.3-0.3,14.4,2.4,32.5c3.9,25.3,12.2,32.4,5.5,33.3
	s1.4,9.3,8.3,21.1c6.9,11.8,4.9,13.9,7.3,23.9c2.4,10,9,22.1,7.6,32.2c-1.4,10.1-7.9,3.9-12.8-1.7c-4.9-5.6-2.2-15.1-6.9-24.6
	c-4.7-9.5-10.1-25-11.4-34c-1.3-9,16.8-15.1,20.4-2.1c3.6,13.1,14.3,26,11.4,11.4C60.1,179,74,168.2,80,157.9
	c6-10.3,14.3-13.8,21.4-17.3c7.1-3.5,13.3-3.9,23.9,4.9c10.6,8.8,19.3,16.3,10.4,12.8c-8.9-3.5-18.6-10.7-31.1-7.3
	c-12.5,3.4-22,5.1-22.8,9.7c-0.9,4.6-2.8,23.2,2.8,22.2c5.6-1.1,8.6-3.8,16.2-9.4c7.6-5.5,16.4-8.4,22.7-5.4
	c6.1,2.9,17.8,7.6,13.3,7.5c-4.5-0.1-14.7,1-23.5,2.4c-3.1,0.5-3.9,1.2-9.2,1.9c-5.3,0.7-8.7,1.6-5.3-1.6c5.1-4.9,8.6-9.7,18.3-8.7
	c9.8,1,15.6,5.4,12.8,6.2c-2.8,0.8-21.6,4.4-22.1,0.3c-1-7.5,10.1-9.3,11.7-3.8c2.7,9-19.5,4.3-29.4,11.4c-9.9,7.1-11.6,13.3-5.5,9
	c6.1-4.3,9.2-8.9,16.2-6.2c7,2.7,19,3.1,25.6,0.7c6.6-2.4,13.4-3.9,14.2-8.3c0.8-4.5,2.1-14.7,4.5-11.8c2.4,2.9,6.8,27.7,8.6,36
	c2.3,10.3,5.5,29.9,13.1,29.5c7.7-0.4,8.5-6.3,7.6-16.3c-0.7-8.1-9.4-38.3-6.6-50.6c2.8-12.3,7.2-12.5,20.8-21.1
	c13.6-8.6,12.7-9.7,20.4-3.7c7.7,6,18.2,20.8,14.9,19.4c-3.4-1.4-13-9.2-21.4-10.7c-8.5-1.6-18.2,2.8-23.5,6.9
	c-5.3,4.1-8.6,12.8-7.3,15.9c1.3,3.1,6.4,5.1,8,3.5c10.3-10.9,17-9.1,20.6-8c3.5,1.2,7.3,3.2,13.7,6.9c6.4,3.7,5.9-1.5,1.7-4.2
	c-4.1-2.7-13.7-6.5-23.2-5.2c-9.4,1.3-13,3-16.3,5.9c-3.2,2.9,0.7,4.3,7.7,4.1c7-0.2,7.2,0.1,13.4-0.3c3.3-0.2,3.6-4.2,2.8-6.3
	c-1.2-2.8-8.9-2.9-9.6,0.8c-1.1,5.9,6.2,4.8,8.9,4.8c6.4,0,11.6-0.7,18.7,3.7c7.1,4.5,5.4,8.3,0.4,4.8c-5.1-3.4-4.6-4.2-11.1-1.4
	c-6.5,2.9-10.5,4.8-15.2,4.2c-5.4-0.9-10.5-3.2-14.9-6.6c-0.1-0.1-1.9-2.7,2.4-3.5c4.3-0.8,21.5-0.6,25.6-0.7s11.7,1.5,20.1,1.4
	c8.4-0.1,12.6-7.2,12.1-17.3c-0.5-10.2-9.6-35.5-12.1-42.2c-2.5-6.8-7.2-20.3-8-28.4c-0.8-8.1-12.3-23.3-25.2-30.5
	c-13-7.2-17.9-8.9-34.6-9.4c-16.7-0.5-57.4,5.6-68.8,12.8c-11.5,7.2-24.8,21.2-21.8,34.6c3,13.4-2.8,21.4-10.4,37.1
	c-7.6,15.7-7,23.5-4.1,32.9c1.8,6.2,5,30.3,4.8,37c-0.2,6.8,5.7,32,7.3,40.9c1.5,8.8,1.3,20.7,4.8,30.8
	c3.6,10.1,16.5,21.1,25.2,28.1s22.2,23.4,32.2,31.9c9.9,8.5,9.1,14.8,20.4,21.5c11.3,6.7,18.9,2.7,27.7,13.2
	c8.8,10.5,0.6,13.3,6.2,24.6c5.6,11.3,15.5,21.3,18.3,30.5s0.7-9.1,2.4-17.7c1.7-8.6,1.8-21,6.2-32.2c4.4-11.2-2.4-19.9-4.5-25.3
	c-2.1-5.4-3.2-23.5,0.4-28.4c6.6-9.1,17.1-27.6,21.4-22.5c4.5,5.3,22.5,21.6,31.1,29.8c8.6,8.2,4.3,4.2,5.2,12.8
	c0.9,8.7,3.1,5.4,16.3,11.8c13.2,6.4,28,8.4,49.5,13.5c20.4,4.9,32.5,10.2,39.1,20.8c14.1,22.9,7.2,45.1-19.2,59.6
	c-40.7,22.3-38.5-14.7-25.5-13.8c13.1,0.9-6.8,31.4-32.9,52.7c-53.8,43.8-39,80.1-27.7,67.9c18.6-19.9-73.7-24.5-73.7,58.7v126.3"/>
<path fill="#0D0F0F" d="M187.3,627.4l8.5-14.1h-17L187.3,627.4z"/>
</svg>
