<?xml version="1.0" encoding="utf-8"?>
<!-- Generator: Adobe Illustrator 18.1.1, SVG Export Plug-In . SVG Version: 6.00 Build 0)  -->
<svg version="1.1" id="Layer_1" xmlns="http://www.w3.org/2000/svg" xmlns:xlink="http://www.w3.org/1999/xlink" x="0px" y="0px"
	 viewBox="-163.3 -427 377.3 1647" enable-background="new -163.3 -427 377.3 1647" xml:space="preserve">
<path fill="none" stroke="#000000" stroke-width="2" stroke-miterlimit="10" d="M-22.1-202.5c1.2,2.2-0.8,1.1,3.8,4.5
	c5.4,4,16.8,1.3,12.1-3.8c-5.5-6-12.1-2.7,1.7,5.5c18,10.7,24.8-10.7,21.5-8c-3.3,2.7-1,9.8,3.8,5.5c4.8-4.3,5.8-7,8.7-6.2
	c2.9,0.8,12,14.8,20.8,18.4c8.8,3.5,20.6-4.2,19.8-10c-0.8-5.8-1.7-6.3-4.2,0.7c-2.5,7-2.1,10.8-3.1,21.8c-1,11.1,0,15.2-10.4,28.4
	c-10.4,13.3-19.2,23.3-17,12.8c1.3-6.2,6.8-12.5,10.7-22.2c4.8-11.6,1.2-16.7-4.2-13.5c-5.3,3.2-9.7-3.9-19.1-5.2
	c-9.3-1.3-10.3,0.5-17,0.7c-6.7,0.2-6-15.7-1.4-17c4.6-1.3,5.1,4.6,5.9,8.7c1.6,8.2-1.3,10.6-11.4,8.7c-8.4-1.5-13.1,1.8-19.8,6.6
	s-12.9,9.8-15.6,6.6c-2.7-3.2,1.2-3,12.5,1c11.3,4.1,17.6,6.9,26,3.8c8.4-3.1,12.9,0.1,18.4-0.4c5.5-0.5,10.6-5.9,14.6-9
	c4-3.1,8.6,0.3,4.5,0.4s-5.2,1.1-13.5-2.4c-5.2-2.2-6.3-4.1-12.1-1.4c-6.9,3.1-8.5,3.7-15.3,2.1c-5.5-1.3-10.9-1.3-14.6,0.3
	c-3.6,1.6-18.3,10.2-26,6.6c-16.2-7.6,0.9,14.8-14.1,9.2c-13.5-5.1-14-3-9.5,5c4.9,8.7,12,23.9,24.3,34.3c9,7.6,22.3,16.3,45.1,13.9
	c23-2.5,40.2-18.3,52.7-36c12.8-18.1,19.9-29.9,20.8-43c0.8-10.9-2.6-51.1-0.4-62.7c2.3-12.1,6.8-26.4,8.3-21.8
	c1.5,4.5,1.7,8.9,1,18c-0.6,9.2-3.3,24.6-5.6,31.9c-2.3,7.3-2.7,0-3.5-6.6c-0.8-6.6,0.9-31.7,3.1-47.8c2.2-16.2,5.2-20.5,4.9-38.8
	c-0.4-18.4-1.8-36-8.3-46.1c-6.5-10.1-7.9-5.9-11.7-22.9c-3.9-16.9-8.4-26.2-15.7-31.5c-7.3-5.4-15.5-11.2-29.1-14.6
	c-13.6-3.3-35.2-9.5-50.6-7.6c-15.4,1.9-33.6,9.5-40.9,14.6c-7.3,5.1-5.1,2.5-19,12.1c-13.9,9.6-25.6,14.1-32.2,26
	c-6.7,11.9-10.3,29.9-8,47.5c1.4,10.3-0.3,14.4,2.5,32.5c3.9,25.3,12.2,32.4,5.5,33.3c-6.7,0.9,1.4,9.3,8.3,21.1
	c6.9,11.8,4.9,13.9,7.3,23.9s9,22.1,7.6,32.2c-1.4,10.1-7.9,3.9-12.8-1.7c-4.9-5.6-2.2-15.1-6.9-24.6c-4.7-9.5-10.1-25-11.5-34
	c-1.3-9,16.9-15.1,20.5-2.1c3.6,13.1,14.4,26,11.4,11.4c-2.9-14.5,11-25.4,17-35.7c6-10.3,14.4-13.8,21.5-17.3
	c7.1-3.5,13.3-3.9,23.9,4.9c10.6,8.8,19.4,16.3,10.4,12.8c-9-3.5-18.7-10.7-31.2-7.3c-12.5,3.4-22,5.1-22.9,9.7
	c-0.9,4.6-2.8,23.2,2.8,22.2c5.6-1.1,8.6-3.8,16.3-9.4c7.7-5.5,16.4-8.4,22.8-5.4c6.1,2.9,17.8,7.6,13.3,7.5
	c-4.6-0.1-14.8,1-23.6,2.4c-3.1,0.5-3.9,1.2-9.2,1.9c-5.4,0.7-8.7,1.6-5.3-1.6c5.2-4.9,8.6-9.7,18.4-8.7c9.8,1,15.6,5.4,12.8,6.2
	c-2.8,0.8-21.6,4.4-22.2,0.3c-1-7.5,10.1-9.3,11.7-3.8c2.7,9-19.5,4.3-29.5,11.4c-10,7.1-11.6,13.3-5.5,9c6.1-4.3,9.3-8.9,16.3-6.2
	c7,2.7,19.1,3.1,25.7,0.7c6.6-2.4,13.4-3.9,14.2-8.3c0.8-4.5,2.1-14.7,4.5-11.8s6.8,27.7,8.7,36c2.3,10.3,5.5,29.9,13.2,29.5
	c7.7-0.4,8.5-6.3,7.6-16.3c-0.7-8.1-9.4-38.3-6.6-50.6c2.8-12.3,7.2-12.5,20.8-21.1c13.6-8.6,12.8-9.7,20.5-3.7
	c7.7,6,18.3,20.8,14.9,19.4c-3.4-1.4-13-9.2-21.5-10.7s-18.2,2.8-23.6,6.9c-5.4,4.1-8.6,12.8-7.3,15.9c1.3,3.1,6.4,5.1,8,3.5
	c10.3-10.9,17.1-9.1,20.6-8c3.5,1.2,7.3,3.2,13.7,6.9c6.4,3.7,5.9-1.5,1.7-4.2c-4.1-2.7-13.8-6.5-23.2-5.2c-9.5,1.3-13,3-16.3,5.9
	s0.7,4.3,7.7,4.1c7-0.2,7.2,0.1,13.4-0.3c3.3-0.2,3.6-4.2,2.8-6.3c-1.2-2.8-8.9-2.9-9.6,0.8c-1.1,5.9,6.2,4.8,9,4.8
	c6.5,0,11.7-0.7,18.8,3.7c7.1,4.5,5.4,8.3,0.4,4.8s-4.6-4.2-11.1-1.4c-6.5,2.9-10.6,4.8-15.3,4.2c-5.4-0.9-10.5-3.2-14.9-6.6
	c-0.1-0.1-1.9-2.7,2.4-3.5c4.3-0.8,21.6-0.6,25.6-0.7s11.7,1.5,20.1,1.4c8.4-0.1,12.6-7.2,12.1-17.3c-0.5-10.2-9.7-35.5-12.1-42.2
	c-2.5-6.8-7.2-20.3-8-28.4c-0.8-8.1-12.3-23.3-25.3-30.5c-13-7.2-18-8.9-34.7-9.4c-16.7-0.5-57.5,5.6-69,12.8
	c-11.5,7.2-24.9,21.2-21.9,34.6c3,13.4-2.8,21.4-10.4,37.1c-7.6,15.7-7,23.5-4.2,32.9c1.9,6.2,5,30.3,4.8,37
	c-0.2,6.8,5.8,32,7.3,40.9c1.5,8.8,1.3,20.7,4.9,30.8c3.6,10.1,16.5,21.1,25.3,28.1c8.8,7,22.3,23.4,32.2,31.9
	c10,8.5,9.1,14.8,20.5,21.5c11.4,6.7,19,2.7,27.7,13.2c8.8,10.5,0.6,13.3,6.2,24.6c5.7,11.3,15.5,21.3,18.4,30.5
	c2.9,9.2,0.7-9.1,2.4-17.7s1.8-21,6.2-32.2c4.5-11.2-2.4-19.9-4.5-25.3c-2.1-5.4-3.2-23.5,0.4-28.4c6.6-9.1,17.1-27.6,21.5-22.5
	c4.5,5.3,22.5,21.6,31.2,29.8c8.7,8.2,4.3,4.2,5.2,12.8c0.9,8.7,3.1,5.4,16.3,11.8c13.2,6.4,28,8.4,49.6,13.5
	c20.5,4.9,32.6,10.2,39.2,20.8c14.2,22.9,7.2,45.1-19.2,59.6c-40.8,22.3-38.6-14.7-25.5-13.8c13.1,0.9-6.9,31.4-33,52.7
	C74,102.7,88.8,139,100.2,126.8c18.6-19.9-73.9-24.5-73.9,58.7v403.6c0,37.4,36.3,70.3,94.8,92.9c83.3,32.2,87.3,76.1,91.2,109.5
	c5.2,43.8-16.1,93.2-59.3,101.2c-21.9,4.1-37.7-6.5-34.7-12.5c4.7-9.4,25.3,9.9,19.4,31.9c-6.3,23.2-41,49-112.3,31.9
	c-69.3-16.6-88.8,30.5-58.2,67.9c38.4,47.1,58.6,67.1,58.6,138.6l0,60.4"/>
<path d="M26.3,205.8l9.9-16.5H16.4L26.3,205.8z"/>
<path d="M25.7,1220l9.9-16.5H15.8L25.7,1220z"/>
</svg>
