<?xml version="1.0" encoding="utf-8"?>
<!-- Generator: Adobe Illustrator 18.1.1, SVG Export Plug-In . SVG Version: 6.00 Build 0)  -->
<svg version="1.1" id="Layer_1" xmlns="http://www.w3.org/2000/svg" xmlns:xlink="http://www.w3.org/1999/xlink" x="0px" y="0px"
	 viewBox="81.9 -427.5 167.5 798.8" enable-background="new 81.9 -427.5 167.5 798.8" xml:space="preserve">
<path fill="none" stroke="#000000" stroke-width="2" stroke-miterlimit="10" d="M135.4-319c0.6,1.1-0.4,0.5,1.8,2.2
	c2.6,1.9,8.1,0.6,5.8-1.8c-2.6-2.9-5.8-1.3,0.8,2.6c8.7,5.1,11.9-5.1,10.3-3.8c-1.6,1.3-0.5,4.7,1.8,2.6c2.3-2.1,2.8-3.4,4.2-3
	c1.4,0.4,5.8,7.1,10,8.8c4.2,1.7,9.9-2,9.5-4.8c-0.4-2.8-0.8-3-2,0.3c-1.2,3.4-1,5.2-1.5,10.5c-0.5,5.3,0,7.3-5,13.7
	c-5,6.4-9.2,11.2-8.2,6.2c0.6-3,3.3-6,5.1-10.7c2.3-5.6,0.6-8-2-6.5c-2.5,1.5-4.7-1.9-9.2-2.5c-4.5-0.6-5,0.2-8.2,0.3
	c-3.2,0.1-2.9-7.5-0.7-8.2c2.2-0.6,2.5,2.2,2.8,4.2c0.8,3.9-0.6,5.1-5.5,4.2c-4-0.7-6.3,0.9-9.5,3.2c-3.2,2.3-6.2,4.7-7.5,3.2
	c-1.3-1.5,0.6-1.4,6,0.5c5.4,2,8.5,3.3,12.5,1.8c4-1.5,6.2,0,8.8-0.2c2.6-0.2,5.1-2.8,7-4.3c1.9-1.5,4.1,0.1,2.2,0.2
	c-2,0-2.5,0.5-6.5-1.2c-2.5-1.1-3-2-5.8-0.7c-3.3,1.5-4.1,1.8-7.4,1c-2.6-0.6-5.2-0.6-7,0.1c-1.7,0.8-8.8,4.9-12.5,3.2
	c-7.8-3.7,0.4,7.1-6.8,4.4c-6.5-2.5-6.7-1.4-4.6,2.4c2.4,4.2,5.8,11.5,11.7,16.5c4.3,3.7,10.7,7.8,21.7,6.7
	c11.1-1.2,19.3-8.8,25.3-17.3c6.2-8.7,9.6-14.4,10-20.7c0.4-5.2-1.3-24.6-0.2-30.2c1.1-5.8,3.3-12.7,4-10.5c0.7,2.2,0.8,4.3,0.5,8.7
	c-0.3,4.4-1.6,11.8-2.7,15.3c-1.1,3.5-1.3,0-1.7-3.2s0.4-15.2,1.5-23c1.1-7.8,2.5-9.9,2.4-18.7c-0.2-8.8-0.9-17.3-4-22.2
	c-3.1-4.9-3.8-2.8-5.6-11c-1.9-8.1-4-12.6-7.5-15.1c-3.5-2.6-7.5-5.4-14-7c-6.5-1.6-16.9-4.6-24.3-3.7c-7.4,0.9-16.2,4.6-19.7,7
	s-2.5,1.2-9.1,5.8c-6.7,4.6-12.3,6.8-15.5,12.5c-3.2,5.7-5,14.4-3.8,22.8c0.7,5-0.1,6.9,1.2,15.6c1.9,12.2,5.9,15.6,2.6,16
	c-3.2,0.4,0.7,4.5,4,10.1s2.4,6.7,3.5,11.5s4.3,10.6,3.7,15.5c-0.7,4.9-3.8,1.9-6.2-0.8s-1.1-7.3-3.3-11.8c-2.3-4.6-4.9-12-5.5-16.3
	c-0.6-4.3,8.1-7.3,9.9-1c1.7,6.3,6.9,12.5,5.5,5.5c-1.4-7,5.3-12.2,8.2-17.2c2.9-5,6.9-6.6,10.3-8.3c3.4-1.7,6.4-1.9,11.5,2.4
	c5.1,4.2,9.3,7.8,5,6.2c-4.3-1.7-9-5.1-15-3.5c-6,1.6-10.6,2.5-11,4.7c-0.4,2.2-1.3,11.2,1.3,10.7c2.7-0.5,4.1-1.8,7.8-4.5
	c3.7-2.6,7.9-4,11-2.6c2.9,1.4,8.6,3.7,6.4,3.6c-2.2,0-7.1,0.5-11.3,1.2c-1.5,0.2-1.9,0.6-4.4,0.9c-2.6,0.3-4.2,0.8-2.5-0.8
	c2.5-2.4,4.1-4.7,8.8-4.2s7.5,2.6,6.2,3c-1.3,0.4-10.4,2.1-10.7,0.1c-0.5-3.6,4.9-4.5,5.6-1.8c1.3,4.3-9.4,2.1-14.2,5.5
	c-4.8,3.4-5.6,6.4-2.6,4.3c2.9-2.1,4.5-4.3,7.8-3s9.2,1.5,12.4,0.3c3.2-1.2,6.4-1.9,6.8-4c0.4-2.2,1-7.1,2.2-5.7
	c1.2,1.4,3.3,13.3,4.2,17.3c1.1,5,2.6,14.4,6.3,14.2c3.7-0.2,4.1-3,3.7-7.8c-0.3-3.9-4.5-18.4-3.2-24.3c1.3-5.9,3.5-6,10-10.1
	c6.5-4.1,6.2-4.7,9.9-1.8c3.7,2.9,8.8,10,7.2,9.3c-1.6-0.7-6.3-4.4-10.3-5.1s-8.8,1.3-11.3,3.3s-4.1,6.2-3.5,7.6
	c0.6,1.5,3.1,2.5,3.8,1.7c5-5.2,8.2-4.4,9.9-3.8c1.7,0.6,3.5,1.5,6.6,3.3c3.1,1.8,2.8-0.7,0.8-2c-2-1.3-6.6-3.1-11.2-2.5
	c-4.6,0.6-6.3,1.4-7.8,2.8s0.3,2.1,3.7,2c3.4-0.1,3.5,0,6.4-0.1c1.6-0.1,1.7-2,1.3-3c-0.6-1.3-4.3-1.4-4.6,0.4
	c-0.5,2.8,3,2.3,4.3,2.3c3.1,0,5.6-0.3,9,1.8c3.4,2.2,2.6,4,0.2,2.3c-2.4-1.7-2.2-2-5.3-0.7c-3.1,1.4-5.1,2.3-7.4,2
	c-2.6-0.4-5-1.5-7.2-3.2c0,0-0.9-1.3,1.2-1.7c2.1-0.4,10.4-0.3,12.3-0.3c1.9,0,5.6,0.7,9.7,0.7c4,0,6.1-3.5,5.8-8.3
	c-0.2-4.9-4.7-17.1-5.8-20.3c-1.2-3.3-3.5-9.8-3.8-13.7c-0.4-3.9-5.9-11.2-12.2-14.7c-6.3-3.5-8.7-4.3-16.7-4.5
	c-8-0.2-27.7,2.7-33.2,6.2s-12,10.2-10.5,16.6c1.4,6.4-1.3,10.3-5,17.8c-3.7,7.5-3.4,11.3-2,15.8c0.9,3,2.4,14.6,2.3,17.8
	c-0.1,3.3,2.8,15.4,3.5,19.7c0.7,4.2,0.6,10,2.4,14.8c1.7,4.9,7.9,10.1,12.2,13.5c4.2,3.4,10.7,11.3,15.5,15.3
	c4.8,4.1,4.4,7.1,9.9,10.3c5.5,3.2,9.1,1.3,13.3,6.3c4.2,5,0.3,6.4,3,11.8c2.7,5.4,7.5,10.2,8.8,14.7c1.4,4.4,0.3-4.4,1.2-8.5
	c0.8-4.1,0.9-10.1,3-15.5c2.2-5.4-1.2-9.6-2.2-12.2c-1-2.6-1.5-11.3,0.2-13.7c3.2-4.4,8.2-13.3,10.3-10.8c2.2,2.5,10.8,10.4,15,14.3
	s2.1,2,2.5,6.2c0.4,4.2,1.5,2.6,7.8,5.7c6.3,3.1,13.5,4,23.9,6.5c9.9,2.4,15.7,4.9,18.9,10c6.8,11,3.5,21.7-9.2,28.7
	c-19.6,10.7-18.6-7.1-12.3-6.6s-3.3,15.1-15.9,25.3c-25.9,21.1-18.8,38.5-13.3,32.7c8.9-9.6-35.5-11.8-35.5,28.2V61.4
	c0,18,17.5,33.8,45.6,44.7c40.1,15.5,42,36.6,43.9,52.7c2.5,21.1-7.7,44.8-28.5,48.7c-10.5,2-18.1-3.1-16.7-6
	c2.3-4.5,12.2,4.8,9.3,15.3c-3,11.2-19.7,23.6-54,15.3c-33.3-8-42.7,14.7-28,32.7c18.5,22.6,28.2,32.3,28.2,66.6v33.4"/>
<path d="M158.3,371.3l10-16.6h-20L158.3,371.3z"/>
<path d="M158.7-114.1l10-16.6h-20L158.7-114.1z"/>
</svg>
