<svg width="346" height="1647" viewBox="0 0 346 1647" fill="none" xmlns="http://www.w3.org/2000/svg">
<path d="M109.861 224.532C111.034 226.702 109.051 225.599 113.674 229.036C119.072 233.06 130.524 230.303 125.807 225.224C120.257 219.253 113.686 222.538 127.544 230.773C145.52 241.471 152.303 220.121 149.04 222.808C145.778 225.494 148.055 232.626 152.854 228.344C157.653 224.063 158.615 221.306 161.514 222.116C164.412 222.925 173.541 236.931 182.318 240.473C191.095 244.016 202.923 236.227 202.078 230.432C201.233 224.638 200.423 224.157 197.924 231.124C195.425 238.092 195.788 241.893 194.803 252.954C193.817 264.016 194.803 268.11 184.395 281.377C173.987 294.644 165.151 304.661 167.404 294.198C168.753 288.04 174.175 281.705 178.152 272.016C182.94 260.368 179.326 255.289 173.999 258.503C168.671 261.717 164.259 254.597 154.931 253.306C145.602 252.016 144.629 253.834 137.94 253.998C131.252 254.163 131.979 238.303 136.556 237.013C141.132 235.723 141.648 241.564 142.423 245.682C144.018 253.893 141.132 256.239 130.982 254.339C122.604 252.825 117.875 256.145 111.222 260.931C104.569 265.717 98.3147 270.749 95.6159 267.512C92.917 264.274 96.7892 264.474 108.101 268.556C119.412 272.638 125.702 275.43 134.103 272.368C142.505 269.306 147.01 272.497 152.479 272.016C157.947 271.535 163.039 266.081 167.04 263.007C171.042 259.934 175.641 263.312 171.546 263.359C167.451 263.406 166.313 264.427 158.029 260.931C152.784 258.714 151.728 256.872 145.896 259.547C139.043 262.667 137.377 263.207 130.642 261.623C125.162 260.333 119.717 260.321 116.08 261.963C112.442 263.605 97.8218 272.192 90.0774 268.556C73.9081 260.966 90.934 283.347 75.9967 277.752C62.5027 272.696 62.0099 274.761 66.5157 282.761C71.3735 291.418 78.5195 306.679 90.7815 317.072C99.7697 324.697 113.076 333.365 135.852 330.937C158.874 328.485 176.029 312.638 188.549 294.89C201.327 276.755 208.402 264.99 209.353 251.91C210.127 241.048 206.795 200.825 209.001 189.189C211.348 177.083 215.783 162.807 217.32 167.347C218.857 171.887 218.986 176.215 218.365 185.376C217.743 194.538 215.091 210.01 212.814 217.259C210.538 224.509 210.151 217.259 209.353 210.679C208.555 204.098 210.256 179.007 212.462 162.843C214.668 146.678 217.696 142.385 217.32 124.027C216.945 105.669 215.501 88.0389 209.001 77.9275C202.5 67.816 201.127 71.992 197.267 55.0535C193.406 38.115 188.842 28.8833 181.579 23.5226C174.315 18.1619 166.055 12.285 152.455 8.96536C138.855 5.6457 117.253 -0.512675 101.835 1.3407C86.4164 3.19408 68.2758 10.807 60.9303 15.8979C53.5849 20.9889 55.873 18.4434 41.9448 28.027C28.0166 37.6106 16.3648 42.1033 9.69996 54.0212C3.03509 65.9391 -0.64937 83.9333 1.72088 101.505C3.11722 111.781 1.40407 115.887 4.17328 133.998C8.05721 159.288 16.3531 166.432 9.69996 167.347C3.04682 168.262 11.0846 176.661 18.0193 188.462C24.9541 200.262 22.9124 202.362 25.3061 212.368C27.6998 222.374 34.3412 234.456 32.9332 244.602C31.5251 254.749 25.0127 248.462 20.0962 242.866C15.1797 237.271 17.902 227.758 13.1732 218.233C8.44443 208.708 3.03509 193.259 1.72088 184.215C0.406684 175.171 18.606 169.071 22.1849 182.139C25.7637 195.206 36.5589 208.11 33.6255 193.576C30.692 179.042 44.6084 168.168 50.6045 157.881C56.6005 147.593 64.9668 144.063 72.101 140.543C79.2353 137.024 85.3956 136.637 96.0265 145.4C106.657 154.162 115.388 161.74 106.423 158.221C97.4581 154.702 87.7541 147.535 75.2223 150.948C62.6904 154.362 53.1977 156.004 52.3411 160.649C51.4845 165.294 49.5015 183.898 55.122 182.831C60.7426 181.764 63.7582 178.995 71.4087 173.447C79.0593 167.898 87.8363 165.025 94.1843 168.004C100.262 170.854 112.02 175.64 107.467 175.523C102.914 175.406 92.7058 176.497 83.8936 177.951C80.8194 178.467 80.0332 179.124 74.6708 179.863C69.3084 180.602 65.9759 181.482 69.3318 178.303C74.483 173.412 77.9093 168.591 87.7072 169.635C97.505 170.678 103.337 175.042 100.532 175.875C97.7279 176.708 78.9067 180.25 78.3435 176.215C77.2992 168.72 88.4934 166.96 90.0774 172.403C92.7997 181.435 70.5756 176.696 60.6018 183.84C50.6279 190.984 48.9969 197.13 55.0634 192.86C61.1298 188.591 64.3332 183.91 71.3501 186.62C78.367 189.33 90.4412 189.717 97.0122 187.312C103.583 184.907 110.436 183.453 111.222 178.995C112.008 174.538 113.311 164.297 115.728 167.206C118.145 170.115 122.51 194.878 124.399 203.253C126.746 213.541 129.879 233.13 137.576 232.708C145.274 232.286 146.06 226.362 145.203 216.426C144.499 208.309 135.816 178.127 138.609 165.822C141.402 153.517 145.814 153.353 159.413 144.708C173.013 136.063 172.192 135.042 179.889 141.013C187.586 146.983 198.182 161.857 194.803 160.415C191.423 158.972 181.778 151.23 173.306 149.67C164.834 148.11 155.095 152.461 149.733 156.602C144.37 160.743 141.144 169.423 142.446 172.544C143.748 175.664 148.876 177.646 150.425 176.063C160.727 165.118 167.486 166.948 171.03 168.11C174.574 169.271 178.375 171.335 184.747 175.019C191.118 178.702 190.614 173.541 186.483 170.866C182.353 168.192 172.708 164.403 163.25 165.67C153.793 166.937 150.202 168.673 146.952 171.535C143.702 174.397 147.656 175.816 154.649 175.652C161.643 175.488 161.842 175.711 168.038 175.371C171.347 175.195 171.652 171.159 170.807 169.083C169.634 166.327 161.889 166.198 161.197 169.928C160.082 175.863 167.439 174.714 170.15 174.737C176.615 174.737 181.802 174.01 188.924 178.467C196.047 182.925 194.345 186.737 189.276 183.312C184.207 179.887 184.712 179.077 178.176 181.928C171.64 184.778 167.615 186.749 162.922 186.092C157.49 185.146 152.373 182.882 148.02 179.5C147.879 179.359 146.154 176.825 150.449 176.039C154.743 175.253 172.027 175.406 176.099 175.347C180.171 175.288 187.833 176.802 196.211 176.731C204.589 176.661 208.86 169.576 208.344 159.406C207.827 149.236 198.675 123.945 196.211 117.177C193.747 110.408 188.995 96.8718 188.232 88.7545C187.469 80.6371 175.935 65.4582 162.922 58.2558C149.909 51.0535 144.957 49.3409 128.26 48.8716C111.562 48.4024 70.7634 54.4552 59.2641 61.6928C47.7649 68.9304 34.3999 82.9363 37.4038 96.3322C40.4077 109.728 34.5994 117.74 26.9958 133.423C19.3922 149.107 20.0258 156.884 22.842 166.35C24.6959 172.579 27.8641 196.602 27.6881 203.394C27.5121 210.186 33.4494 235.441 34.9749 244.286C36.5003 253.13 36.2656 265.025 39.8327 275.136C43.3998 285.248 56.3541 296.251 65.1311 303.207C73.9081 310.163 87.4256 326.573 97.3759 335.101C107.326 343.629 106.458 349.858 117.828 356.579C129.198 363.301 136.79 359.266 145.567 369.752C154.344 380.239 146.154 383.09 151.81 394.386C157.465 405.682 167.298 415.665 170.185 424.885C173.072 434.105 170.924 415.758 172.614 407.207C174.304 398.656 174.386 386.163 178.845 374.972C183.304 363.782 176.427 355.031 174.339 349.67C172.25 344.31 171.147 326.21 174.691 321.26C181.262 312.157 191.834 293.682 196.187 298.726C200.717 303.981 218.728 320.309 227.388 328.532C236.048 336.755 231.659 332.685 232.586 341.354C233.513 350.022 235.672 346.761 248.885 353.142C262.097 359.524 276.929 361.53 298.46 366.656C318.936 371.535 331.069 376.837 337.64 387.453C351.815 410.363 344.88 432.544 318.396 447.02C277.644 469.307 279.792 432.298 292.875 433.237C305.958 434.175 286.011 464.662 259.914 485.894C206.032 529.73 220.782 566.035 232.175 553.823C250.809 533.882 158.252 529.331 158.252 612.475V1016.11C158.252 1053.54 194.533 1086.36 253.027 1108.99C336.279 1141.2 340.28 1185.13 344.234 1218.52C349.421 1262.32 328.1 1311.73 284.919 1319.71C262.989 1323.77 247.265 1313.22 250.246 1307.23C254.939 1297.85 275.579 1317.15 269.665 1339.13C263.411 1362.34 228.667 1388.13 157.336 1371.01C88.0005 1354.38 68.5809 1401.51 99.0891 1438.94C137.494 1486.05 157.641 1506.08 157.641 1577.57V1647" stroke="black" stroke-width="2" stroke-miterlimit="10"/>
</svg>
