<?xml version="1.0" encoding="utf-8"?>
<!-- Generator: Adobe Illustrator 18.1.1, SVG Export Plug-In . SVG Version: 6.00 Build 0)  -->
<svg version="1.1" id="Layer_1" xmlns="http://www.w3.org/2000/svg" xmlns:xlink="http://www.w3.org/1999/xlink" x="0px" y="0px"
	 viewBox="0 0 278.5 510" enable-background="new 0 0 278.5 510" xml:space="preserve">
<path fill="none" stroke="#0D0F0F" stroke-width="4" stroke-miterlimit="10" d="M131.2,267.3c1.4,2.6-0.9,1.3,4.5,5.3
	c6.4,4.8,20,1.5,14.4-4.5c-6.6-7.1-14.4-3.2,2.1,6.6c21.3,12.7,29.4-12.6,25.5-9.5c-3.9,3.2-1.2,11.7,4.5,6.6
	c5.7-5.1,6.8-8.3,10.3-7.4c3.4,0.9,14.3,17.6,24.7,21.8s24.4-5.1,23.4-11.9c-1-6.9-2-7.4-4.9,0.8c-3,8.3-2.5,12.8-3.7,25.9
	c-1.2,13.1,0,18-12.3,33.7c-12.3,15.7-22.9,27.6-20.2,15.2c1.6-7.3,8-14.8,12.8-26.3c5.7-13.8,1.4-19.8-4.9-16
	c-6.3,3.8-11.5-4.6-22.6-6.2s-12.2,0.6-20.2,0.8c-7.9,0.2-7.1-18.6-1.6-20.2s6,5.4,7,10.3c1.9,9.8-1.5,12.5-13.6,10.3
	c-9.9-1.8-15.6,2.1-23.4,7.8c-7.9,5.7-15.3,11.7-18.5,7.8c-3.2-3.8,1.4-3.6,14.8,1.2c13.4,4.8,20.8,8.2,30.8,4.5
	c10-3.6,15.3,0.2,21.8-0.4c6.5-0.6,12.6-7,17.3-10.7c4.7-3.6,10.2,0.4,5.3,0.4c-4.9,0-6.2,1.3-16-2.9c-6.2-2.6-7.5-4.8-14.4-1.6
	c-8.1,3.7-10.1,4.4-18.1,2.5c-6.5-1.5-13-1.5-17.3,0.4c-4.3,2-21.6,12.1-30.8,7.8c-19.2-9,1,17.6-16.7,10.9c-16-6-16.6-3.6-11.3,5.9
	c5.8,10.3,14.3,28.4,28.8,40.7c10.7,9,26.4,19.3,53.5,16.5c27.3-2.9,47.7-21.7,62.5-42.8c15.2-21.5,23.6-35.5,24.7-51
	c0.9-12.9-3-60.6-0.4-74.4c2.7-14.4,8-31.3,9.9-25.9c1.8,5.4,2,10.5,1.2,21.4c-0.7,10.9-3.9,29.2-6.6,37.8c-2.7,8.6-3.2,0-4.1-7.8
	c-1-7.8,1.1-37.6,3.7-56.8c2.6-19.1,6.2-24.3,5.8-46.1c-0.4-21.8-2.2-42.7-9.9-54.7c-7.7-12-9.3-7.1-14-27.1
	c-4.7-20.1-9.9-31.1-18.5-37.4c-8.6-6.4-18.4-13.3-34.5-17.3c-16.1-3.9-41.8-11.2-60-9c-18.2,2.2-39.8,11.2-48.5,17.3
	s-6.1,3-22.6,14.4C34,45.4,20.2,50.8,12.3,64.9C4.4,79,0,100.4,2.9,121.3c1.6,12.2-0.4,17.1,2.9,38.6c4.6,30,14.4,38.5,6.6,39.6
	c-7.9,1.1,1.6,11,9.9,25.1c8.2,14,5.8,16.5,8.6,28.4c2.8,11.9,10.7,26.2,9,38.2c-1.7,12-9.4,4.6-15.2-2.1
	c-5.8-6.6-2.6-17.9-8.2-29.2c-5.6-11.3-12-29.6-13.6-40.3c-1.6-10.7,20-18,24.3-2.5c4.2,15.5,17.1,30.8,13.6,13.6s13-30.1,20.2-42.4
	c7.1-12.2,17-16.4,25.5-20.6c8.5-4.2,15.8-4.6,28.4,5.8c12.6,10.4,23,19.4,12.3,15.2c-10.6-4.2-22.2-12.7-37-8.6
	c-14.9,4-26.1,6-27.1,11.5c-1,5.5-3.4,27.6,3.3,26.3c6.7-1.3,10.2-4.6,19.3-11.1c9.1-6.6,19.5-10,27-6.5c7.2,3.4,21.2,9,15.8,8.9
	c-5.4-0.1-17.5,1.1-28,2.9c-3.6,0.6-4.6,1.4-10.9,2.3c-6.4,0.9-10.3,1.9-6.3-1.9c6.1-5.8,10.2-11.5,21.8-10.3
	c11.6,1.2,18.5,6.4,15.2,7.4c-3.3,1-25.6,5.2-26.3,0.4c-1.2-8.9,12-11,14-4.5c3.2,10.7-23.1,5.1-35,13.6
	c-11.8,8.5-13.8,15.8-6.6,10.7s11-10.6,19.3-7.4c8.3,3.2,22.7,3.7,30.4,0.8c7.8-2.8,15.9-4.6,16.9-9.9c0.9-5.3,2.5-17.4,5.3-14
	c2.9,3.5,8,32.8,10.3,42.8c2.7,12.2,6.5,35.4,15.6,35c9.1-0.5,10.1-7.5,9-19.3c-0.8-9.6-11.2-45.4-7.8-60
	c3.4-14.6,8.6-14.8,24.7-25.1c16.1-10.3,15.1-11.6,24.3-4.5c9.2,7.1,21.7,24.7,17.7,23c-4-1.7-15.4-10.9-25.5-12.7
	c-10.1-1.8-21.6,3.3-28,8.2s-10.2,15.2-8.6,18.9c1.5,3.7,7.6,6.1,9.5,4.1c12.2-13,20.2-10.8,24.5-9.4c4.2,1.4,8.7,3.8,16.3,8.2
	c7.6,4.4,7-1.8,2.1-4.9c-4.9-3.2-16.3-7.7-27.6-6.2c-11.2,1.5-15.5,3.6-19.3,7c-3.8,3.4,0.8,5.1,9.1,4.9c8.2-0.2,8.5,0.1,15.9-0.3
	c3.9-0.2,4.3-5,3.3-7.5c-1.3-3.3-10.6-3.4-11.4,1c-1.3,7,7.4,5.7,10.6,5.7c7.7,0,13.8-0.9,22.3,4.4s6.4,9.8,0.4,5.8
	c-6-4.1-5.4-5-13.2-1.6c-7.8,3.4-12.6,5.7-18.1,4.9c-9.7-1.4-17.5-7.6-17.7-7.8c-0.2-0.2-2.2-3.2,2.9-4.1c5.1-0.9,25.6-0.8,30.4-0.8
	c4.8-0.1,13.9,1.7,23.9,1.6s15-8.5,14.4-20.6s-11.5-42.1-14.4-50.2c-2.9-8.1-8.6-24.1-9.5-33.7c-0.9-9.6-14.6-27.6-30-36.2
	c-15.4-8.5-21.3-10.6-41.1-11.1c-19.8-0.5-68.2,6.6-81.8,15.2c-13.7,8.6-29.5,25.3-25.9,41.1c3.6,15.9-3.3,25.4-12.3,44
	c-9,18.6-8.3,27.8-4.9,39.1c2.2,7.4,5.9,35.9,5.8,44c-0.1,8.1,6.8,38,8.6,48.5c1.8,10.5,1.5,24.6,5.8,36.6c4.2,12,19.6,25,30,33.3
	c10.4,8.3,26.4,27.7,38.2,37.8c11.8,10.1,10.8,17.5,24.3,25.5c13.5,8,22.5,3.2,32.9,15.6c10.4,12.4,0.7,15.8,7.4,29.2
	c6.7,13.4,18.4,25.3,21.8,36.2c3.4,10.9,0.9-10.8,2.9-21c2-10.1,2.1-25,7.4-38.2c5.3-13.3-2.9-23.7-5.3-30
	c-2.5-6.3-3.8-27.9,0.4-33.7c7.8-10.8,20.3-32.7,25.5-26.7c5.4,6.2,26.7,25.6,37,35.4c3.9,3.7,5.5,5.3,6.2,6.4"/>
</svg>
