<svg width="32" height="33" viewBox="0 0 32 33" fill="none" xmlns="http://www.w3.org/2000/svg">
<path d="M32 16.4513C32 25.2879 24.8365 32.4517 15.9999 32.4517C7.16373 32.4517 0 25.2879 0 16.4513C0 7.61539 7.16373 0.45166 15.9999 0.45166C24.8365 0.45166 32 7.61539 32 16.4513Z" fill="#2D2D2D"/>
<path d="M13.4211 26.9795H17.5277V16.6956H20.3929L20.6987 13.2522H17.5277C17.5277 13.2522 17.5277 11.9662 17.5277 11.2912C17.5277 10.4792 17.6909 10.158 18.4757 10.158C19.1073 10.158 20.6985 10.158 20.6985 10.158V6.58447C20.6985 6.58447 18.3551 6.58447 17.8548 6.58447C14.7988 6.58447 13.4211 7.93025 13.4211 10.5068C13.4211 12.7506 13.4211 13.2522 13.4211 13.2522H11.2849V16.739H13.4211V26.9795Z" fill="white"/>
</svg>
