<svg width="32" height="32" viewBox="0 0 32 32" fill="none" xmlns="http://www.w3.org/2000/svg">
<path d="M32 15.9996C32 24.8363 24.8365 32 16 32C7.16354 32 0 24.8363 0 15.9996C0 7.16373 7.16354 0 16 0C24.8365 0 32 7.16373 32 15.9996Z" fill="#2D2D2D"/>
<path d="M16.0168 8.75148C18.4866 8.75148 18.7792 8.76069 19.7547 8.8051C20.6567 8.84643 21.1463 8.99735 21.4722 9.12371C21.9042 9.29164 22.212 9.49216 22.5358 9.81597C22.8596 10.1393 23.0601 10.4473 23.2278 10.8793C23.3544 11.2054 23.5053 11.6953 23.5462 12.597C23.5908 13.5723 23.6 13.8649 23.6 16.3351C23.6 18.8049 23.5908 19.0976 23.5462 20.073C23.5051 20.9748 23.3542 21.4644 23.2278 21.7908C23.0601 22.2228 22.8596 22.5308 22.5358 22.8541C22.212 23.1779 21.9042 23.3784 21.4722 23.5463C21.146 23.6729 20.6564 23.8234 19.7547 23.865C18.7792 23.9089 18.4868 23.9186 16.0168 23.9186C13.5467 23.9186 13.2541 23.9089 12.2786 23.865C11.3766 23.8234 10.887 23.6727 10.5611 23.5463C10.1293 23.3784 9.82136 23.1779 9.49802 22.8541C9.17397 22.5308 8.97321 22.2228 8.80575 21.7908C8.67892 21.4644 8.52847 20.9748 8.4869 20.073C8.44226 19.0978 8.43305 18.8049 8.43305 16.3351C8.43305 13.8649 8.44226 13.5723 8.4869 12.597C8.52847 11.6953 8.67892 11.2054 8.80575 10.8793C8.97321 10.4473 9.17397 10.1393 9.49802 9.81597C9.82136 9.49216 10.1293 9.29187 10.5611 9.12371C10.887 8.99712 11.3769 8.84643 12.2786 8.8051C13.2541 8.76069 13.5467 8.75148 16.0168 8.75148ZM16.0168 7.08496C13.5045 7.08496 13.1896 7.09535 12.2031 7.14046C11.2184 7.18534 10.5455 7.34193 9.95717 7.57056C9.34922 7.80651 8.83315 8.12299 8.31897 8.63764C7.80479 9.15182 7.4883 9.66764 7.25188 10.2761C7.02325 10.8644 6.86666 11.5368 6.82202 12.5212C6.77644 13.508 6.76581 13.8231 6.76581 16.3354C6.76581 18.8474 6.77644 19.1623 6.82202 20.1491C6.86642 21.1335 7.02325 21.8059 7.25188 22.3942C7.48807 23.0026 7.80479 23.5185 8.31897 24.0327C8.83315 24.5471 9.34922 24.8636 9.95717 25.0997C10.5455 25.3284 11.2184 25.4845 12.2031 25.5296C13.1896 25.5749 13.5045 25.5853 16.0168 25.5853C18.5291 25.5853 18.8442 25.5749 19.8307 25.5296C20.8151 25.4847 21.4876 25.3284 22.0761 25.0997C22.6843 24.8636 23.2004 24.5471 23.7148 24.0327C24.229 23.5185 24.5452 23.0026 24.7814 22.3942C25.0105 21.8059 25.1667 21.1335 25.2115 20.1491C25.2566 19.1623 25.2673 18.8474 25.2673 16.3354C25.2673 13.8231 25.2566 13.508 25.2115 12.5212C25.1667 11.5368 25.0105 10.8644 24.7814 10.2761C24.5452 9.66764 24.229 9.15182 23.7148 8.63764C23.2006 8.12323 22.6846 7.80651 22.0761 7.57056C21.4876 7.34193 20.8151 7.18558 19.8307 7.14046C18.8442 7.09535 18.5291 7.08496 16.0168 7.08496Z" fill="white"/>
<path d="M16.0168 11.5852C13.393 11.5852 11.2666 13.7113 11.2666 16.3351C11.2666 18.9587 13.393 21.085 16.0168 21.085C18.6404 21.085 20.7667 18.9587 20.7667 16.3351C20.7667 13.7116 18.6404 11.5852 16.0168 11.5852ZM16.0168 19.4185C14.3139 19.4185 12.9329 18.0378 12.9329 16.3351C12.9329 14.632 14.3136 13.2515 16.0168 13.2515C17.7197 13.2515 19.1002 14.632 19.1002 16.3351C19.1002 18.0378 17.7199 19.4185 16.0168 19.4185Z" fill="white"/>
<path d="M22.0648 11.3974C22.0648 12.0105 21.5679 12.5075 20.9547 12.5075C20.3418 12.5075 19.8447 12.0105 19.8447 11.3974C19.8447 10.7843 20.3418 10.2869 20.9547 10.2869C21.5676 10.2869 22.0648 10.784 22.0648 11.3974Z" fill="white"/>
</svg>
