<?xml version="1.0" encoding="utf-8"?>
<!-- Generator: Adobe Illustrator 18.1.1, SVG Export Plug-In . SVG Version: 6.00 Build 0)  -->
<svg version="1.1" id="Layer_1" xmlns="http://www.w3.org/2000/svg" xmlns:xlink="http://www.w3.org/1999/xlink" x="0px" y="0px"
	 viewBox="0 0 596.4 279.8" enable-background="new 0 0 596.4 279.8" xml:space="preserve">
<path fill="none" stroke="#0D0F0F" stroke-width="4" stroke-miterlimit="10" d="M446,1c1.1,1.9-0.7,2.4,0,8.8
	c1.1,10.3,3.7,6.4,19.3,14c15.7,7.6,33.3,10,58.8,16c24.3,5.8,39.5,11.6,46.5,24.7c6.9,12.9,11.6,37.6,18.1,62.5
	c6.5,24.6,14.7,57.9-21.4,47.8c-36.1-10.1-86.7-34.8-138.7-7.6c-60.7,31.8-168.4,53.3-224,14.8c-44.6-30.9-72.3-86.2-145.1-86.2
	C29.1,95.9,2,109.8,2,138.5v141.3"/>
</svg>
