<?xml version="1.0" encoding="utf-8"?>
<!-- Generator: Adobe Illustrator 18.1.1, SVG Export Plug-In . SVG Version: 6.00 Build 0)  -->
<svg version="1.1" id="Layer_1" xmlns="http://www.w3.org/2000/svg" xmlns:xlink="http://www.w3.org/1999/xlink" x="0px" y="0px"
	 viewBox="294 -4 1200 800" enable-background="new 294 -4 1200 800" xml:space="preserve">
<g>
	<defs>
		<rect id="SVGID_1_" x="294" y="-4" width="1200" height="800"/>
	</defs>
	<clipPath id="SVGID_2_">
		<use xlink:href="#SVGID_1_"  overflow="visible"/>
	</clipPath>
	<g clip-path="url(#SVGID_2_)">
		<rect x="294" y="-4" fill="#FFFFFF" width="1200" height="800"/>
		<path fill="#2D2D2D" d="M1248.5,43v-7.6c0-1.4-0.4-2.5-1.3-3.3c-0.7-0.7-1.8-1.1-3-1.1c-1.7,0-3,0.7-3.9,2c-0.7-1.3-2-2-3.6-2
			c-1.3,0-2.5,0.5-3.3,1.4v-1.3h-1.7V43h1.7v-7.3c0-2.1,1.2-3.1,3-3.1s2.9,1.1,2.9,3.1V43h1.7v-7.5c0-1.9,1.2-3,3-3
			c1.8,0,2.9,1.1,2.9,3.1V43H1248.5z M1261.1,43v-8c0-2.5-1.5-3.9-4.7-3.9c-1.9,0-3.1,0.4-4.2,1.8l1.2,1.1c0.7-1,1.5-1.4,3-1.4
			c2.2,0,3,0.9,3,2.6v1.1h-3.5c-2.6,0-4.1,1.3-4.1,3.4c0,0.9,0.3,1.8,0.9,2.4c0.8,0.8,1.7,1.1,3.3,1.1c1.6,0,2.5-0.3,3.4-1.3V43
			H1261.1z M1259.4,38.8c0,1-0.2,1.7-0.6,2c-0.8,0.7-1.6,0.8-2.6,0.8c-1.9,0-2.7-0.6-2.7-2c0-1.4,0.9-2.1,2.7-2.1h3.3V38.8z
			 M1274.1,43V25.9h-1.7v6.6c-1-1.2-2-1.5-3.3-1.5c-1.2,0-2.3,0.4-2.9,1c-1.2,1.2-1.4,3.1-1.4,5s0.3,3.8,1.4,5c0.6,0.6,1.7,1,2.9,1
			c1.3,0,2.4-0.3,3.4-1.6V43H1274.1z M1272.3,37.1c0,2.3-0.4,4.5-3,4.5c-2.6,0-3-2.2-3-4.5s0.4-4.5,3-4.5
			C1271.9,32.6,1272.3,34.8,1272.3,37.1z M1287.4,37.6v-0.8c0-3.6-1.8-5.7-4.8-5.7c-3,0-4.8,2.2-4.8,6c0,4.2,2,6,5.2,6
			c2,0,3.1-0.6,4.3-1.8l-1.2-1c-0.9,0.9-1.7,1.3-3.1,1.3c-2.3,0-3.5-1.5-3.5-4.1H1287.4z M1285.7,36.3h-6.3c0-1,0.1-1.3,0.4-2
			c0.5-1.1,1.5-1.8,2.8-1.8s2.3,0.7,2.8,1.8C1285.6,34.9,1285.6,35.3,1285.7,36.3z M1306.5,37.1c0-1.9-0.3-3.8-1.4-5
			c-0.6-0.6-1.7-1-2.9-1c-1.3,0-2.3,0.3-3.3,1.5v-6.6h-1.7V43h1.7v-1.4c1,1.2,2,1.6,3.3,1.6c1.2,0,2.3-0.4,2.9-1
			C1306.2,40.9,1306.5,39,1306.5,37.1z M1304.7,37.1c0,2.3-0.4,4.5-2.9,4.5c-2.6,0-3-2.2-3-4.5s0.4-4.5,3-4.5
			C1304.3,32.6,1304.7,34.8,1304.7,37.1z M1318.5,31.2h-1.9l-3.2,9.5l-3.2-9.5h-1.9l4.2,11.6l-0.8,2.3c-0.4,1.1-0.7,1.5-1.9,1.5
			h-0.5v1.5h0.8c0.8,0,1.7-0.2,2.3-0.8c0.3-0.3,0.6-0.7,0.8-1.4L1318.5,31.2z M1336.4,43V25.9h-3.1v5.7c-0.8-0.9-1.8-1.2-3.1-1.2
			c-1.3,0-2.3,0.4-3,1.1c-1.2,1.2-1.3,3.2-1.3,5.3c0,2.1,0.1,4.1,1.3,5.3c0.7,0.7,1.8,1.1,3.1,1.1c1.3,0,2.2-0.4,3.1-1.3V43H1336.4z
			 M1333.3,36.7c0,2-0.3,3.6-2.1,3.6s-2.1-1.6-2.1-3.6s0.2-3.6,2.1-3.6S1333.3,34.7,1333.3,36.7z M1349.4,43v-8.2
			c0-2.9-1.8-4.4-5.3-4.4c-2.1,0-3.3,0.4-4.5,1.8l2,1.9c0.7-0.8,1.3-1.1,2.4-1.1c1.6,0,2.3,0.6,2.3,2v0.6h-2.9
			c-2.9,0-4.3,1.6-4.3,3.6c0,1.1,0.4,2.1,1,2.8c0.7,0.7,1.8,1.1,3.2,1.1c1.4,0,2.2-0.4,3.1-1.2V43H1349.4z M1346.2,38.4
			c0,0.8-0.1,1.3-0.5,1.6c-0.5,0.5-1.1,0.6-1.8,0.6c-1.3,0-1.9-0.6-1.9-1.4c0-0.9,0.6-1.4,1.8-1.4h2.4V38.4z M1362.7,43V25.9h-3.1
			v5.7c-0.8-0.9-1.8-1.2-3-1.2c-1.3,0-2.3,0.4-3,1.1c-1.2,1.2-1.3,3.2-1.3,5.3c0,2.1,0.1,4.1,1.3,5.3c0.7,0.7,1.8,1.1,3,1.1
			c1.3,0,2.2-0.4,3.1-1.3V43H1362.7z M1359.6,36.7c0,2-0.3,3.6-2.1,3.6s-2.1-1.6-2.1-3.6s0.2-3.6,2.1-3.6S1359.6,34.7,1359.6,36.7z
			 M1375.6,43v-8.2c0-2.9-1.8-4.4-5.3-4.4c-2.1,0-3.3,0.4-4.5,1.8l2,1.9c0.7-0.8,1.3-1.1,2.4-1.1c1.7,0,2.3,0.6,2.3,2v0.6h-2.9
			c-2.9,0-4.3,1.6-4.3,3.6c0,1.1,0.4,2.1,1,2.8c0.7,0.7,1.8,1.1,3.2,1.1c1.4,0,2.2-0.4,3.1-1.2V43H1375.6z M1372.5,38.4
			c0,0.8-0.1,1.3-0.5,1.6c-0.5,0.5-1.1,0.6-1.9,0.6c-1.3,0-1.9-0.6-1.9-1.4c0-0.9,0.6-1.4,1.8-1.4h2.4V38.4z M1393.8,43v-8
			c0-2.5-1.5-3.9-4.7-3.9c-1.9,0-3.1,0.4-4.2,1.8l1.2,1.1c0.7-1,1.5-1.4,3-1.4c2.2,0,3,0.9,3,2.6v1.1h-3.5c-2.6,0-4.1,1.3-4.1,3.4
			c0,0.9,0.3,1.8,0.9,2.4c0.8,0.8,1.7,1.1,3.3,1.1c1.6,0,2.5-0.3,3.4-1.3V43H1393.8z M1392.1,38.8c0,1-0.2,1.7-0.6,2
			c-0.8,0.7-1.6,0.8-2.6,0.8c-1.9,0-2.7-0.6-2.7-2c0-1.4,0.9-2.1,2.7-2.1h3.3V38.8z M1406.7,43.4V31.2h-1.7v1.4
			c-1-1.2-2-1.5-3.3-1.5c-1.2,0-2.3,0.4-2.9,1c-1.2,1.2-1.4,3-1.4,4.9s0.3,3.7,1.4,4.9c0.6,0.6,1.7,1.1,2.8,1.1
			c1.3,0,2.4-0.3,3.3-1.5v1.8c0,2-1,3.6-3.2,3.6c-1.4,0-2-0.4-2.8-1.2l-1.1,1.1c1.3,1.1,2.2,1.6,4,1.6
			C1404.9,48.4,1406.7,46.3,1406.7,43.4z M1405,37c0,2.2-0.4,4.4-2.9,4.4c-2.6,0-3-2.2-3-4.4s0.4-4.4,3-4.4
			C1404.6,32.6,1405,34.8,1405,37z M1420.1,37.6v-0.8c0-3.6-1.8-5.7-4.8-5.7c-3,0-4.8,2.2-4.8,6c0,4.2,2,6,5.2,6
			c2,0,3.1-0.6,4.3-1.8l-1.2-1c-0.9,0.9-1.7,1.3-3.1,1.3c-2.3,0-3.5-1.5-3.5-4.1H1420.1z M1418.4,36.3h-6.3c0.1-1,0.1-1.3,0.4-2
			c0.5-1.1,1.5-1.8,2.8-1.8s2.3,0.7,2.8,1.8C1418.3,34.9,1418.3,35.3,1418.4,36.3z M1433.1,43v-7.6c0-1.4-0.4-2.5-1.2-3.3
			c-0.7-0.7-1.8-1.1-3-1.1c-1.3,0-2.5,0.5-3.3,1.4v-1.3h-1.7V43h1.7v-7.3c0-2.1,1.2-3.1,2.9-3.1c1.8,0,2.9,1.1,2.9,3.1V43H1433.1z
			 M1445.7,41.4l-1.2-1.1c-0.9,1-1.6,1.3-2.7,1.3c-1.2,0-2.1-0.5-2.7-1.3c-0.5-0.8-0.8-1.7-0.8-3.2s0.2-2.4,0.8-3.2
			c0.6-0.9,1.6-1.3,2.7-1.3c1.1,0,1.8,0.3,2.7,1.3l1.2-1.1c-1.2-1.3-2.3-1.8-3.9-1.8c-3,0-5.2,2-5.2,6s2.3,6,5.2,6
			C1443.5,43.1,1444.5,42.7,1445.7,41.4z M1457.3,31.2h-1.9l-3.2,9.5l-3.2-9.5h-1.9l4.3,11.6l-0.8,2.3c-0.4,1.1-0.7,1.5-1.9,1.5
			h-0.5v1.5h0.7c0.8,0,1.7-0.2,2.3-0.8c0.3-0.3,0.6-0.7,0.8-1.4L1457.3,31.2z"/>
		<path fill="none" stroke="#000000" stroke-width="4" stroke-miterlimit="10" d="M415.4,346.1c1.4,3.1-1.3,1.4,4.9,6.7
			c7.2,6.2,24,4,17.9-3.6c-7.2-9-17-5.3,1.8,7.9c24.4,17.1,36.8-11.3,31.8-8.1c-5,3.3-2.7,13.4,4.8,8.1c7.4-5.2,9.2-8.9,13.2-7.4
			s15.3,22,27.4,28c12.1,6,30.1-3.1,29.6-11.2c-0.5-8.1-1.6-8.8-6,0.4c-4.5,9.2-4.4,14.5-7.3,29.6c-2.8,15.1-1.9,20.8-18.5,37.7
			c-16.6,16.8-30.6,29.5-26,15.4c2.7-8.3,11.3-16.3,18.2-29.1c8.4-15.4,3.8-22.8-4.2-19.1c-8.1,3.7-13.4-6.7-26.7-9.7
			c-13.2-3-14.8-0.6-24.4-1.3c-9.6-0.7-6.5-22.4,0.2-23.5c6.7-1.2,6.7,6.9,7.3,12.7c1.2,11.5-3.2,14.3-17.5,10.4
			c-11.8-3.2-19,0.7-29.2,6.4c-10.1,5.7-19.8,11.8-23.2,7c-3.4-4.8,2.1-4,17.7,3.1c15.7,7.1,24.3,11.8,36.8,8.7s18.4,1.9,26.4,2
			c8,0.1,15.9-6.8,22-10.4c6.1-3.7,12.3,1.6,6.4,1.1c-5.9-0.5-7.6,0.8-19.1-5.1c-7.2-3.7-8.5-6.4-17.2-3.5
			c-10.2,3.4-12.7,3.9-22.1,0.8c-7.7-2.5-15.5-3.3-20.9-1.5c-5.4,1.8-27.5,11.6-38.1,5.6c-22.2-12.6-0.7,20.5-21.4,10.8
			c-18.7-8.7-19.6-6-14.2,5.6c5.8,12.6,14.1,34.5,30.4,50.4c11.9,11.7,29.8,25.4,62.8,25.1c33.3-0.3,59.9-19.8,80.1-42.5
			c20.6-23.2,32.3-38.5,35.3-56.3c2.5-14.8,2.9-70.6,7.6-86.3c4.8-16.3,13.1-35.4,14.7-28.9c1.6,6.4,1.2,12.4-0.8,24.9
			c-2.1,12.5-7.9,33.5-12,43.1c-4.2,9.7-3.8-0.4-4.1-9.5c-0.3-9.2,5.4-43.5,10.6-65.4c5.2-21.9,10.1-27.4,11.9-52.7s2-49.7-6-64.5
			c-8-14.8-10.5-9.2-14-33c-3.4-23.8-8.7-37.1-18.3-45.5c-9.7-8.3-20.8-17.5-39.9-23.9c-19.1-6.4-49.3-17.7-71.5-17.3
			c-22.3,0.5-49.3,8.5-60.5,14.5c-11.2,6-7.6,2.8-28.9,14.1c-21.2,11.3-38.5,16-49.5,31.4c-11.1,15.4-18.7,39.8-17.5,64.2
			c0.7,14.3-2.3,19.7-0.7,45c2.3,35.3,13.3,46.2,3.6,46.6c-9.7,0.4,0.8,13,9.2,30.2c8.4,17.2,5.2,19.8,7.4,33.9
			c2.1,14.1,10.1,31.6,6.8,45.3c-3.3,13.8-11.8,4.2-18.2-4.1c-6.3-8.3-1.2-21.1-6.8-34.8c-5.6-13.7-11.3-35.7-12-48.2
			c-0.7-12.6,26.1-18.6,29.6-0.1c3.4,18.4,17.3,37.7,14.9,17.3c-2.3-20.4,19-33.5,28.9-46.8c9.9-13.3,22.3-17.1,33-21
			c10.7-3.9,19.5-3.6,33.7,9.9c14.1,13.5,25.6,25.1,13.3,19c-12.4-6-25.4-17.2-43.8-14.2c-18.4,3-32.2,4-34,10.3
			c-1.8,6.3-7.1,31.6,1.1,30.9c8.2-0.7,12.9-4.1,24.5-10.7c11.7-6.6,24.6-9.4,33.3-4.4c8.3,4.7,24.6,12.9,18.1,12.1
			c-6.5-0.7-21.3-0.6-34.1,0.2c-4.5,0.3-5.7,1.1-13.5,1.4c-7.8,0.3-12.7,1.1-7.5-2.9c8-6,13.5-12.2,27.4-9.5
			c13.9,2.7,21.7,9.5,17.6,10.3c-4.1,0.8-31.5,3.1-31.8-2.5c-0.5-10.5,15.7-11.4,17.4-3.7c2.7,12.8-28.5,3.3-43.7,11.8
			s-18.3,16.7-9.1,11.7c9.2-5.1,14.4-11.1,24.1-6.4c9.7,4.7,27,6.8,36.7,4.4c9.7-2.4,19.7-3.5,21.4-9.5c1.7-6,4.9-19.9,8-15.6
			c3.1,4.3,6.2,39,7.8,50.7c2,14.5,4,41.8,15.1,42.3c11.1,0.5,13-7.6,13-21.4c0-11.3-8.6-53.9-2.9-70.5
			c5.6-16.5,11.9-16.2,32.5-26.3c20.6-10.1,19.5-11.8,29.8-2.5c10.3,9.3,23.5,31.1,18.9,28.7s-17.5-14.4-29.4-17.6
			c-11.9-3.3-26.4,1.4-34.7,6.4c-8.2,5-13.9,16.5-12.5,21c1.5,4.5,8.6,7.9,11,5.8c16.2-13.7,25.6-10.3,30.6-8.2
			c4.9,2.1,10.1,5.4,18.8,11.3c8.7,5.9,8.6-1.2,3-5.5c-5.6-4.2-18.9-10.7-32.6-10.3c-13.7,0.5-19.1,2.4-24.1,5.9
			c-5,3.5,0.4,6,10.5,6.7c9.9,0.7,10.3,1,19.2,1.4c4.8,0.2,5.7-5.3,4.8-8.3c-1.3-4-12.4-5.2-13.9-0.1c-2.4,8,8.3,7.4,12.2,7.8
			c9.3,0.9,16.8,0.6,26.4,7.6c9.6,7.1,6.7,12.1-0.1,6.7c-6.8-5.4-6-6.4-15.7-3.4c-9.7,3.1-15.8,5.2-22.4,3.7
			c-11.6-2.7-20.3-10.8-20.5-11c-0.2-0.2-2.3-3.9,3.9-4.4c6.3-0.5,31,2,36.8,2.5c5.8,0.5,16.6,3.6,28.6,4.6c12,1,19.1-8.1,19.6-22.2
			c0.6-14.1-9.3-50.1-12-59.8c-2.7-9.7-7.7-28.9-7.8-40.2c0-11.3-14.6-33.7-32.3-45.3c-17.7-11.6-24.6-14.7-48.5-17.5
			c-23.9-2.8-83,0-100.5,8.4c-17.5,8.4-38.3,26-35.7,44.7s-6.8,29.1-19.7,49.6c-12.9,20.6-13,31.3-10.2,44.7
			c1.9,8.9,3.2,42.3,2.2,51.6c-1,9.3,4.1,44.8,5.2,57.2c1,12.4-0.8,28.7,3,43.1c3.8,14.4,21,31.2,32.7,42
			c11.7,10.8,28.9,35.1,42.1,48.2c13.2,13.1,11.1,21.5,26.5,32.3c15.4,10.8,26.8,6.2,38,21.8c11.2,15.6-0.9,18.4,5.8,34.7
			c6.6,16.3,19.5,31.3,22.4,44.4c3,13.1,2.2-12.5,5.7-24c3.5-11.5,5.3-28.7,13.1-43.5c7.8-14.8-0.9-27.8-3.2-35.4
			c-2.3-7.6-1.6-32.8,4.1-39c10.6-11.6,28.1-35.6,33.7-28.1c5.8,7.8,29.5,32.7,40.9,45.2c11.4,12.5,5.6,6.3,5.8,18.3
			c0.2,12,3.7,7.8,21.8,18.4c18.1,10.5,39.1,15.3,69.3,25.2c28.7,9.4,46.5,17.9,53.5,33.8c6.9,15.8,9.9,44.9,15.1,74.5
			c5.1,29.3,11.5,68.8-31.1,53c-42.5-15.7-101-50.1-166.7-24.4c-76.8,30-209.1,42.8-272.2-8.1c-50.6-40.9-78-108-165.9-116.2
			c-36.7-3.4-70.9,9.7-74,43l-38.3,410.5c-11.6,124.3,66.1,108.6,122.6,80.6c63.1-31.2,192.1-73,283.8-41.4
			c91.7,31.6,168.4,138.5,140,228c-28.3,89.5-95.7,111.3-178.5,141.9c-82.8,30.7-89.4,106.8-96.7,185.6
			c-5.7,60.7,28.7,63.5,31.9,28.4c3.1-33-27.8-61.4-72.1-2.9c-44.3,58.5-102.4,53.1-164.1,42.3s-128.2,2.1-133.2,56.6l-22.7,243.5"
			/>
		<rect x="250" y="552" fill="#FFFFFF" width="578" height="125"/>
		<rect x="250" y="593" fill="#FFFFFF" width="99" height="125"/>
		<path fill="#FFFFFF" stroke="#2D2D2D" stroke-width="3" d="M360,557.5h1068c15.7,0,28.5,12.8,28.5,28.5v56
			c0,15.7-12.8,28.5-28.5,28.5H360c-15.7,0-28.5-12.8-28.5-28.5v-56C331.5,570.3,344.3,557.5,360,557.5z"/>
		<path fill="#2D2D2D" d="M723.4,317v-45.6h-8.9V317H723.4z M750.3,317l-16.8-24.2l15.3-21.4h-10.6l-14.7,21.7l16,23.9H750.3z
			 M780,317v-22c0-7.8-4.8-11.8-14.2-11.8c-5.6,0-8.7,1.2-12,4.7l5.2,5.2c1.8-2,3.4-2.9,6.4-2.9c4.4,0,6.2,1.6,6.2,5.2v1.7h-7.7
			c-7.9,0-11.5,4.4-11.5,9.7c0,2.9,1,5.6,2.8,7.5c1.9,1.9,4.7,2.9,8.5,2.9c3.8,0,6-1,8.2-3.2v2.9H780z M771.6,304.7
			c0,2.1-0.3,3.4-1.3,4.2c-1.4,1.3-2.9,1.6-4.9,1.6c-3.5,0-5.1-1.5-5.1-3.8c0-2.5,1.6-3.8,4.9-3.8h6.3V304.7z M797.3,317v-33.3h-8.4
			V317H797.3z M818.8,317l-12.5-17.8l11.8-15.6h-9.7l-10.9,15.9l11.5,17.5H818.8z M861.8,291v-7.4H834v7.4h9.8v26h8.4v-26H861.8z
			 M894.3,302.9v-3.5c0-9.5-5.2-16.1-14.5-16.1c-8.6,0-14.5,6.1-14.5,17c0,13.5,7.6,17.1,15.4,17.1c6,0,9.3-1.8,12.7-5.2l-5.1-4.9
			c-2.1,2-3.9,3.1-7.6,3.1c-4.7,0-7.3-3.1-7.3-7.4H894.3z M886.1,297.2h-12.7c0.1-1.5,0.2-2.4,0.8-3.6c0.9-2,2.8-3.5,5.6-3.5
			s4.7,1.5,5.6,3.5C885.9,294.9,886,295.8,886.1,297.2z M915.2,309.9c-1.6,0-3-0.4-4-1.6c-1.2-1.3-1.9-3.9-1.9-8
			c0-3.6,0.6-6.2,1.7-7.6c1-1.3,2.5-1.7,4.2-1.7s3.1,0.5,4.1,1.8c1.1,1.3,1.7,3.9,1.7,7.6c0,3.9-0.6,6.5-1.7,7.9
			C918.2,309.4,916.8,309.9,915.2,309.9z M915.3,317.4c4,0,7.5-1.3,9.9-3.8c2.9-3,4.1-6.7,4.1-13.4c0-5.7-1.3-10.8-4.2-13.5
			c-1.9-1.7-4-2.7-8.2-2.7c-3.6,0-7,1.7-8.3,3.8c0-4,1.2-6.1,4.2-7.7c3.8-2,9.4-1.6,13.6-1.9V271c-9.9,0.1-15.9,0.5-20,3.7
			c-4.2,3.3-5.3,7.2-5.3,22.8c0,6.2,0.7,11.5,2.7,14.7C906,315.7,910.4,317.4,915.3,317.4z M964.4,302.9v-3.5
			c0-9.5-5.2-16.1-14.5-16.1c-8.6,0-14.5,6.1-14.5,17c0,13.5,7.6,17.1,15.4,17.1c6,0,9.3-1.8,12.7-5.2l-5.1-4.9
			c-2.1,2-3.9,3.1-7.6,3.1c-4.7,0-7.3-3.1-7.3-7.4H964.4z M956.2,297.2h-12.7c0.1-1.5,0.2-2.4,0.8-3.6c0.9-2,2.8-3.5,5.6-3.5
			s4.7,1.5,5.6,3.5C956,294.9,956.1,295.8,956.2,297.2z M1010.7,291v-7.4H983v7.4h9.8v26h8.4v-26H1010.7z M1041,317v-22
			c0-7.8-4.8-11.8-14.2-11.8c-5.6,0-8.7,1.2-12,4.7l5.2,5.2c1.8-2,3.4-2.9,6.4-2.9c4.4,0,6.2,1.6,6.2,5.2v1.7h-7.7
			c-7.9,0-11.5,4.4-11.5,9.7c0,2.9,1,5.6,2.8,7.5c1.9,1.9,4.7,2.9,8.5,2.9c3.8,0,6-1,8.2-3.2v2.9H1041z M1032.7,304.7
			c0,2.1-0.3,3.4-1.3,4.2c-1.4,1.3-2.9,1.6-4.9,1.6c-3.5,0-5.1-1.5-5.1-3.8c0-2.5,1.6-3.8,4.9-3.8h6.3V304.7z M1058.4,317v-33.3
			h-8.4V317H1058.4z M1079.9,317l-12.5-17.8l11.8-15.6h-9.7l-10.9,15.9l11.5,17.5H1079.9z M1109.7,300.3c0-6-0.8-9.7-3.8-12.9
			c-2.1-2.2-5.4-4.1-10.4-4.1s-8.2,1.9-10.3,4.1c-3,3.2-3.8,6.9-3.8,12.9c0,6,0.8,9.8,3.8,13c2.1,2.2,5.4,4.1,10.3,4.1
			s8.3-1.9,10.4-4.1C1109,310.2,1109.7,306.3,1109.7,300.3z M1101.4,300.3c0,3.5-0.2,6.5-1.9,8.1c-1,1-2.2,1.5-3.9,1.5
			c-1.6,0-2.9-0.5-3.8-1.5c-1.7-1.7-1.9-4.7-1.9-8.1c0-3.4,0.2-6.4,1.9-8.1c1-1,2.2-1.5,3.8-1.5c1.7,0,2.9,0.5,3.9,1.5
			C1101.2,293.9,1101.4,296.9,1101.4,300.3z M1145.1,302.9v-3.5c0-9.5-5.2-16.1-14.5-16.1c-8.6,0-14.5,6.1-14.5,17
			c0,13.5,7.6,17.1,15.4,17.1c6,0,9.3-1.8,12.7-5.2l-5.1-4.9c-2.1,2-3.9,3.1-7.6,3.1c-4.7,0-7.3-3.1-7.3-7.4H1145.1z M1136.9,297.2
			h-12.7c0.1-1.5,0.2-2.4,0.8-3.6c0.9-2,2.8-3.5,5.6-3.5s4.7,1.5,5.6,3.5C1136.7,294.9,1136.8,295.8,1136.9,297.2z M799.6,397v-45.6
			h-7.9l-17.7,29.2v-29.2H765V397h7.9l17.7-29.2V397H799.6z M836.8,397v-33.3h-24.4v13.5c0,12-2.8,12.5-5.6,12.5h-1v7.4h4
			c6.8,0,10.7-3.7,10.7-18v-8h8v26H836.8z M873,380.3c0-6-0.8-9.7-3.8-12.9c-2.1-2.2-5.4-4.1-10.4-4.1c-4.9,0-8.2,1.9-10.3,4.1
			c-3,3.2-3.8,6.9-3.8,12.9c0,6,0.8,9.8,3.8,13c2.1,2.2,5.4,4.1,10.3,4.1c4.9,0,8.3-1.9,10.4-4.1C872.3,390.2,873,386.3,873,380.3z
			 M864.6,380.3c0,3.5-0.2,6.5-1.9,8.1c-1,1-2.2,1.5-3.9,1.5c-1.6,0-2.9-0.5-3.8-1.5c-1.7-1.7-1.9-4.7-1.9-8.1
			c0-3.4,0.2-6.4,1.9-8.1c1-1,2.2-1.5,3.8-1.5c1.7,0,2.9,0.5,3.9,1.5C864.4,373.9,864.6,376.9,864.6,380.3z M908.3,397v-33.3h-8.4
			v12.6h-10.7v-12.6h-8.4V397h8.4v-13.4h10.7V397H908.3z M974.4,397v-45.6h-8.8l-11.8,24.6l-11.9-24.6h-8.8V397h8.9v-26.6l8.8,17.3
			h6l8.7-17.3V397H974.4z M1009.5,397v-22c0-7.8-4.8-11.8-14.2-11.8c-5.6,0-8.7,1.2-12,4.7l5.2,5.2c1.8-2,3.4-2.9,6.4-2.9
			c4.4,0,6.2,1.6,6.2,5.2v1.7h-7.7c-7.9,0-11.5,4.4-11.5,9.7c0,2.9,1,5.6,2.8,7.5c1.9,1.9,4.7,2.9,8.5,2.9c3.8,0,6-1,8.2-3.2v2.9
			H1009.5z M1001.2,384.7c0,2.1-0.3,3.4-1.3,4.2c-1.4,1.3-2.9,1.6-4.9,1.6c-3.5,0-5.1-1.5-5.1-3.8c0-2.5,1.6-3.8,4.9-3.8h6.3V384.7z
			 M1042.8,392.8l-5.6-5.6c-1.7,1.9-3.2,2.6-5.4,2.6c-2,0-3.5-0.7-4.7-2.2c-1.3-1.6-1.9-3.9-1.9-7.4c0-3.5,0.6-5.8,1.9-7.4
			c1.2-1.5,2.8-2.2,4.7-2.2c2.2,0,3.6,0.8,5.4,2.6l5.6-5.6c-2.9-3.1-6.4-4.5-11-4.5c-6.7,0-14.9,3.5-14.9,17s8.3,17.1,14.9,17.1
			C1036.4,397.4,1039.8,395.9,1042.8,392.8z M1057.7,397v-33.3h-8.4V397H1057.7z M1079.2,397l-12.5-17.8l11.8-15.6h-9.7l-10.9,15.9
			l11.5,17.5H1079.2z M1109.9,363.8c0-8.1-6.3-12.8-13.5-12.8c-7.4,0-13.4,4.9-13.4,12.8h8.3c0-2.9,1.7-5.3,5.1-5.3
			c3.2,0,5.2,2.2,5.2,5.2c0,1.4-0.8,2.9-1.9,4.3l-4.7,6.1c-1.7,2.2-2.4,3.9-2.4,6.7v1.9h8.3v-1.3c0-1.1,0.5-2.4,1.2-3.3l4.7-6.3
			C1108.6,369.5,1109.9,367,1109.9,363.8z M1101.2,397v-8.5h-8.8v8.5H1101.2z"/>
		<g>
			<defs>
				
					<rect id="SVGID_3_" x="312.9" y="716.1" transform="matrix(-0.9969 -7.910457e-002 7.910457e-002 -0.9969 596.1846 1479.8363)" width="29" height="24"/>
			</defs>
			<clipPath id="SVGID_4_">
				<use xlink:href="#SVGID_3_"  overflow="visible"/>
			</clipPath>
			<g clip-path="url(#SVGID_4_)">
				<path d="M326.5,740.1l16.4-22.8l-28.9-2.3L326.5,740.1z"/>
			</g>
		</g>
	</g>
</g>
</svg>
