<svg width="1200" height="800" viewBox="0 0 1200 800" fill="none" xmlns="http://www.w3.org/2000/svg">
<g clip-path="url(#clip0)">
<rect width="1200" height="800" fill="white"/>
<path d="M954.462 47V39.44C954.462 38.072 954.03 36.968 953.19 36.152C952.47 35.456 951.414 35.048 950.142 35.048C948.486 35.048 947.166 35.72 946.254 37.016C945.534 35.72 944.262 35.048 942.63 35.048C941.31 35.048 940.134 35.528 939.294 36.488V35.192H937.566V47H939.294V39.728C939.294 37.664 940.47 36.584 942.246 36.584C944.022 36.584 945.15 37.64 945.15 39.728V47H946.878V39.536C946.878 37.664 948.102 36.584 949.83 36.584C951.606 36.584 952.734 37.64 952.734 39.728V47H954.462ZM967.084 47V38.984C967.084 36.44 965.548 35.048 962.356 35.048C960.412 35.048 959.212 35.456 958.18 36.824L959.356 37.904C960.076 36.92 960.844 36.536 962.332 36.536C964.516 36.536 965.356 37.424 965.356 39.128V40.256H961.828C959.188 40.256 957.724 41.576 957.724 43.664C957.724 44.6 958.012 45.488 958.612 46.064C959.428 46.856 960.316 47.144 961.948 47.144C963.532 47.144 964.42 46.808 965.356 45.872V47H967.084ZM965.356 42.824C965.356 43.808 965.164 44.48 964.756 44.864C963.988 45.56 963.124 45.656 962.14 45.656C960.244 45.656 959.404 45.008 959.404 43.64C959.404 42.248 960.292 41.552 962.068 41.552H965.356V42.824ZM980.053 47V29.912H978.325V36.56C977.341 35.336 976.309 35.048 974.989 35.048C973.765 35.048 972.733 35.456 972.109 36.08C970.933 37.256 970.669 39.2 970.669 41.096C970.669 42.992 970.933 44.912 972.109 46.112C972.733 46.736 973.765 47.144 974.989 47.144C976.333 47.144 977.365 46.832 978.349 45.584V47H980.053ZM978.325 41.096C978.325 43.4 977.941 45.608 975.373 45.608C972.781 45.608 972.397 43.4 972.397 41.096C972.397 38.792 972.781 36.584 975.373 36.584C977.941 36.584 978.325 38.792 978.325 41.096ZM993.419 41.552V40.784C993.419 37.232 991.643 35.048 988.571 35.048C985.571 35.048 983.723 37.256 983.723 41.096C983.723 45.272 985.739 47.144 988.883 47.144C990.875 47.144 992.003 46.52 993.203 45.32L992.027 44.288C991.091 45.224 990.299 45.632 988.931 45.632C986.651 45.632 985.451 44.144 985.451 41.552H993.419ZM991.715 40.256H985.451C985.499 39.296 985.523 38.912 985.811 38.288C986.315 37.208 987.299 36.512 988.571 36.512C989.843 36.512 990.827 37.208 991.331 38.288C991.619 38.912 991.643 39.296 991.715 40.256ZM1012.46 41.096C1012.46 39.2 1012.19 37.256 1011.02 36.08C1010.39 35.456 1009.36 35.048 1008.14 35.048C1006.84 35.048 1005.79 35.336 1004.8 36.56V29.912H1003.07V47H1004.8V45.584C1005.79 46.832 1006.82 47.144 1008.14 47.144C1009.36 47.144 1010.39 46.736 1011.02 46.112C1012.19 44.912 1012.46 42.992 1012.46 41.096ZM1010.73 41.096C1010.73 43.4 1010.35 45.608 1007.78 45.608C1005.19 45.608 1004.8 43.4 1004.8 41.096C1004.8 38.792 1005.19 36.584 1007.78 36.584C1010.35 36.584 1010.73 38.792 1010.73 41.096ZM1024.46 35.192H1022.58L1019.37 44.672L1016.13 35.192H1014.26L1018.5 46.76L1017.66 49.064C1017.28 50.144 1016.92 50.528 1015.72 50.528H1015.19V52.064H1015.94C1016.78 52.064 1017.62 51.848 1018.24 51.248C1018.58 50.936 1018.84 50.504 1019.08 49.856L1024.46 35.192ZM1042.42 47V29.912H1039.3V35.6C1038.48 34.688 1037.52 34.352 1036.25 34.352C1035 34.352 1033.92 34.76 1033.22 35.48C1032.02 36.704 1031.93 38.648 1031.93 40.736C1031.93 42.848 1032.02 44.792 1033.22 46.016C1033.92 46.736 1035.02 47.144 1036.27 47.144C1037.59 47.144 1038.5 46.784 1039.37 45.824V47H1042.42ZM1039.3 40.736C1039.3 42.752 1039.03 44.336 1037.16 44.336C1035.29 44.336 1035.05 42.752 1035.05 40.736C1035.05 38.72 1035.29 37.16 1037.16 37.16C1039.03 37.16 1039.3 38.72 1039.3 40.736ZM1055.36 47V38.768C1055.36 35.84 1053.56 34.352 1050.04 34.352C1047.95 34.352 1046.77 34.784 1045.55 36.128L1047.52 38.072C1048.19 37.304 1048.79 36.992 1049.92 36.992C1051.57 36.992 1052.24 37.592 1052.24 38.96V39.584H1049.34C1046.39 39.584 1045.02 41.216 1045.02 43.208C1045.02 44.312 1045.38 45.32 1046.05 46.016C1046.77 46.736 1047.83 47.12 1049.24 47.12C1050.68 47.12 1051.48 46.76 1052.32 45.92V47H1055.36ZM1052.24 42.392C1052.24 43.184 1052.12 43.664 1051.76 43.976C1051.24 44.48 1050.68 44.576 1049.92 44.576C1048.62 44.576 1048.02 44.024 1048.02 43.16C1048.02 42.224 1048.62 41.72 1049.87 41.72H1052.24V42.392ZM1068.69 47V29.912H1065.57V35.6C1064.75 34.688 1063.79 34.352 1062.52 34.352C1061.27 34.352 1060.19 34.76 1059.5 35.48C1058.3 36.704 1058.2 38.648 1058.2 40.736C1058.2 42.848 1058.3 44.792 1059.5 46.016C1060.19 46.736 1061.3 47.144 1062.54 47.144C1063.86 47.144 1064.78 46.784 1065.64 45.824V47H1068.69ZM1065.57 40.736C1065.57 42.752 1065.3 44.336 1063.43 44.336C1061.56 44.336 1061.32 42.752 1061.32 40.736C1061.32 38.72 1061.56 37.16 1063.43 37.16C1065.3 37.16 1065.57 38.72 1065.57 40.736ZM1081.64 47V38.768C1081.64 35.84 1079.84 34.352 1076.31 34.352C1074.22 34.352 1073.05 34.784 1071.82 36.128L1073.79 38.072C1074.46 37.304 1075.06 36.992 1076.19 36.992C1077.85 36.992 1078.52 37.592 1078.52 38.96V39.584H1075.61C1072.66 39.584 1071.29 41.216 1071.29 43.208C1071.29 44.312 1071.65 45.32 1072.33 46.016C1073.05 46.736 1074.1 47.12 1075.52 47.12C1076.96 47.12 1077.75 46.76 1078.59 45.92V47H1081.64ZM1078.52 42.392C1078.52 43.184 1078.4 43.664 1078.04 43.976C1077.51 44.48 1076.96 44.576 1076.19 44.576C1074.89 44.576 1074.29 44.024 1074.29 43.16C1074.29 42.224 1074.89 41.72 1076.14 41.72H1078.52V42.392ZM1099.81 47V38.984C1099.81 36.44 1098.27 35.048 1095.08 35.048C1093.14 35.048 1091.94 35.456 1090.91 36.824L1092.08 37.904C1092.8 36.92 1093.57 36.536 1095.06 36.536C1097.24 36.536 1098.08 37.424 1098.08 39.128V40.256H1094.55C1091.91 40.256 1090.45 41.576 1090.45 43.664C1090.45 44.6 1090.74 45.488 1091.34 46.064C1092.15 46.856 1093.04 47.144 1094.67 47.144C1096.26 47.144 1097.15 46.808 1098.08 45.872V47H1099.81ZM1098.08 42.824C1098.08 43.808 1097.89 44.48 1097.48 44.864C1096.71 45.56 1095.85 45.656 1094.87 45.656C1092.97 45.656 1092.13 45.008 1092.13 43.64C1092.13 42.248 1093.02 41.552 1094.79 41.552H1098.08V42.824ZM1112.73 47.36V35.192H1111.03V36.584C1110.07 35.336 1109.01 35.048 1107.72 35.048C1106.52 35.048 1105.46 35.456 1104.84 36.08C1103.66 37.256 1103.4 39.08 1103.4 41C1103.4 42.92 1103.66 44.744 1104.84 45.92C1105.46 46.544 1106.49 46.976 1107.69 46.976C1108.96 46.976 1110.04 46.664 1111 45.44V47.288C1111 49.304 1110.04 50.912 1107.76 50.912C1106.4 50.912 1105.8 50.504 1104.93 49.736L1103.8 50.84C1105.05 51.968 1106.04 52.424 1107.81 52.424C1110.91 52.424 1112.73 50.288 1112.73 47.36ZM1111 41C1111 43.208 1110.64 45.416 1108.08 45.416C1105.51 45.416 1105.12 43.208 1105.12 41C1105.12 38.792 1105.51 36.584 1108.08 36.584C1110.64 36.584 1111 38.792 1111 41ZM1126.1 41.552V40.784C1126.1 37.232 1124.32 35.048 1121.25 35.048C1118.25 35.048 1116.4 37.256 1116.4 41.096C1116.4 45.272 1118.42 47.144 1121.56 47.144C1123.55 47.144 1124.68 46.52 1125.88 45.32L1124.71 44.288C1123.77 45.224 1122.98 45.632 1121.61 45.632C1119.33 45.632 1118.13 44.144 1118.13 41.552H1126.1ZM1124.39 40.256H1118.13C1118.18 39.296 1118.2 38.912 1118.49 38.288C1118.99 37.208 1119.98 36.512 1121.25 36.512C1122.52 36.512 1123.51 37.208 1124.01 38.288C1124.3 38.912 1124.32 39.296 1124.39 40.256ZM1139.07 47V39.44C1139.07 38.072 1138.68 36.968 1137.84 36.152C1137.12 35.432 1136.09 35.048 1134.82 35.048C1133.5 35.048 1132.35 35.528 1131.51 36.488V35.192H1129.78V47H1131.51V39.728C1131.51 37.664 1132.66 36.584 1134.43 36.584C1136.21 36.584 1137.34 37.64 1137.34 39.728V47H1139.07ZM1151.73 45.392L1150.55 44.264C1149.66 45.248 1148.97 45.608 1147.84 45.608C1146.69 45.608 1145.73 45.152 1145.1 44.264C1144.55 43.496 1144.33 42.584 1144.33 41.096C1144.33 39.608 1144.55 38.696 1145.1 37.928C1145.73 37.04 1146.69 36.584 1147.84 36.584C1148.97 36.584 1149.66 36.92 1150.55 37.904L1151.73 36.8C1150.5 35.48 1149.47 35.048 1147.84 35.048C1144.86 35.048 1142.61 37.064 1142.61 41.096C1142.61 45.128 1144.86 47.144 1147.84 47.144C1149.47 47.144 1150.5 46.712 1151.73 45.392ZM1163.32 35.192H1161.45L1158.24 44.672L1155 35.192H1153.12L1157.37 46.76L1156.53 49.064C1156.15 50.144 1155.79 50.528 1154.59 50.528H1154.06V52.064H1154.8C1155.64 52.064 1156.48 51.848 1157.11 51.248C1157.44 50.936 1157.71 50.504 1157.95 49.856L1163.32 35.192Z" fill="#2D2D2D"/>
<path d="M121.392 350.055C122.768 353.183 120.107 351.416 126.278 356.761C133.496 363.007 150.261 360.754 144.153 353.14C136.972 344.176 127.142 347.817 145.925 360.998C170.317 378.112 182.768 349.657 177.745 352.909C172.721 356.162 175.074 366.281 182.497 361.046C189.92 355.81 191.667 352.18 195.716 353.625C199.765 355.07 211.04 375.623 223.163 381.668C235.285 387.713 253.225 378.57 252.766 370.488C252.308 362.406 251.197 361.639 246.717 370.885C242.236 380.131 242.279 385.414 239.444 400.496C236.608 415.579 237.499 421.34 220.894 438.191C204.29 455.041 190.297 467.645 194.909 453.555C197.627 445.265 206.214 437.273 213.154 424.487C221.51 409.102 217 401.643 208.928 405.342C200.857 409.041 195.487 398.664 182.275 395.642C169.064 392.621 167.458 395.005 157.846 394.324C148.234 393.644 151.312 371.939 158.039 370.783C164.766 369.627 164.763 377.714 165.371 383.487C166.599 395.035 162.171 397.752 147.867 393.874C136.066 390.672 128.854 394.605 118.708 400.288C108.563 405.971 98.9491 412.075 95.5104 407.258C92.0716 402.442 97.5699 403.229 113.259 410.357C128.949 417.485 137.551 422.168 150.025 419.077C162.499 415.986 168.442 420.978 176.396 421.057C184.351 421.136 192.339 414.304 198.415 410.611C204.492 406.918 210.705 412.186 204.828 411.69C198.952 411.195 197.196 412.459 185.767 406.546C178.536 402.799 177.267 400.127 168.559 403.017C158.359 406.392 155.899 406.927 146.436 403.837C138.754 401.327 130.957 400.585 125.529 402.367C120.102 404.149 98.0741 413.988 87.4292 407.947C65.2461 395.342 86.7627 428.405 66.0615 418.713C47.3817 409.965 46.4127 412.725 51.8278 424.337C57.6701 436.902 65.9705 458.832 82.1955 474.77C94.0972 486.458 112.025 500.151 144.991 499.862C178.304 499.571 204.916 480.068 225.121 457.336C245.767 434.108 257.416 418.872 260.44 401.013C262.958 386.166 263.352 330.401 267.994 314.694C272.826 298.355 281.095 279.328 282.718 285.778C284.341 292.228 283.959 298.192 281.895 310.702C279.831 323.212 274.043 344.159 269.855 353.812C265.667 363.465 266.05 353.457 265.733 344.292C265.416 335.128 271.105 300.791 276.342 278.932C281.578 257.074 286.457 251.509 288.278 226.197C290.099 200.885 290.293 176.464 282.272 161.69C274.251 146.917 271.764 152.464 268.319 128.656C264.873 104.847 259.666 91.5434 250.013 83.195C240.36 74.8467 229.211 65.676 210.156 59.2822C191.101 52.8883 160.884 41.544 138.612 42.0283C116.34 42.5125 89.3085 50.558 78.1293 56.5777C66.9502 62.5974 70.4909 59.3939 49.2522 70.7108C28.0136 82.0277 10.7908 86.7142 -0.279761 102.148C-11.3504 117.583 -18.9462 141.904 -17.7983 166.383C-17.1302 180.701 -20.1111 186.12 -18.4568 211.401C-16.1453 246.715 -5.17441 257.638 -14.8246 258.012C-24.4747 258.385 -14.0319 270.995 -5.61626 288.2C2.7994 305.404 -0.396858 307.976 1.74602 322.062C3.8889 336.147 11.8665 353.643 8.53752 367.41C5.2085 381.177 -3.30244 371.651 -9.61915 363.311C-15.9359 354.971 -10.8336 342.23 -16.3957 328.542C-21.9578 314.854 -27.7027 292.87 -28.4289 280.301C-29.155 267.733 -2.28933 261.73 1.14516 280.176C4.57965 298.623 18.4087 317.847 16.0695 297.435C13.7303 277.024 35.0667 263.961 44.9907 250.612C54.9147 237.263 67.3384 233.533 78.0121 229.654C88.6859 225.775 97.554 226.049 111.664 239.525C125.774 253.001 137.309 264.593 124.92 258.552C112.531 252.511 99.532 241.364 81.1483 244.37C62.7646 247.376 48.9415 248.384 47.1185 254.657C45.2956 260.93 40.0567 286.25 48.2457 285.533C56.4347 284.817 61.1167 281.412 72.7931 274.842C84.4695 268.273 97.4041 265.456 106.118 270.394C114.464 275.135 130.696 283.265 124.186 282.523C117.677 281.781 102.911 281.879 90.0972 282.708C85.6258 282.997 84.411 283.826 76.6444 284.097C68.8779 284.367 63.9783 285.165 69.19 281.237C77.204 275.201 82.7196 269.038 96.6288 271.778C110.538 274.518 118.338 281.299 114.207 282.073C110.076 282.846 82.6692 285.202 82.3719 279.583C81.8442 269.129 98.0956 268.193 99.75 275.916C102.493 288.672 71.2636 279.205 56.06 287.705C40.8564 296.205 37.7295 304.423 46.9558 299.356C56.1821 294.289 61.3964 288.294 71.1029 292.955C80.8093 297.616 98.0657 299.765 107.772 297.338C117.478 294.912 127.506 293.819 129.206 287.799C130.905 281.78 134.072 267.868 137.175 272.196C140.279 276.524 143.346 311.149 144.968 322.926C146.961 337.382 148.992 364.746 160.063 365.203C171.134 365.659 173.032 357.609 173.081 343.82C173.13 332.559 164.495 289.895 170.138 273.349C175.78 256.802 182.066 257.153 202.655 247.055C223.244 236.956 222.132 235.28 232.451 244.546C242.77 253.813 255.984 275.658 251.32 273.232C246.656 270.806 233.848 258.846 221.901 255.582C209.955 252.318 195.452 256.96 187.234 261.963C179.016 266.965 173.294 278.451 174.757 282.915C176.219 287.379 183.321 290.792 185.737 288.748C201.919 275.069 211.35 278.498 216.288 280.569C221.225 282.641 226.389 285.988 235.046 291.907C243.704 297.825 243.681 290.659 238.064 286.419C232.447 282.178 219.164 275.683 205.45 276.163C191.736 276.643 186.367 278.551 181.347 282.088C176.328 285.624 181.792 288.067 191.846 288.779C201.776 289.49 202.141 289.822 211.06 290.192C215.822 290.392 216.778 284.875 215.842 281.912C214.578 277.948 203.446 276.746 201.969 281.791C199.612 289.807 210.296 289.208 214.178 289.594C223.437 290.511 230.966 290.151 240.572 297.23C250.178 304.31 247.27 309.332 240.446 303.95C233.623 298.568 234.459 297.506 224.729 300.56C214.999 303.614 208.94 305.77 202.339 304.24C190.765 301.554 182.015 293.405 181.825 293.191C181.634 292.976 179.496 289.261 185.746 288.749C191.997 288.236 216.75 290.757 222.594 291.225C228.437 291.694 239.176 294.797 251.226 295.821C263.276 296.844 270.28 287.675 270.836 273.611C271.392 259.546 261.542 223.553 258.877 213.837C256.211 204.122 251.146 184.941 251.099 173.686C251.052 162.431 236.47 140.002 218.752 128.357C201.034 116.713 194.145 113.695 170.28 110.853C146.414 108.01 87.2443 110.854 69.7843 119.264C52.3244 127.674 31.4656 145.229 34.0422 164.009C36.6188 182.789 27.2874 193.063 14.381 213.619C1.47449 234.176 1.37901 244.917 4.19462 258.344C6.06151 267.226 7.4298 300.673 6.38956 309.994C5.34931 319.316 10.5327 354.836 11.5723 367.212C12.612 379.589 10.7639 395.903 14.5679 410.283C18.3719 424.662 35.5487 441.463 47.2265 452.275C58.9044 463.086 76.1581 487.385 89.3305 500.437C102.503 513.489 100.445 521.952 115.88 532.724C131.314 543.497 142.697 538.948 153.928 554.545C165.159 570.142 153.066 572.966 159.711 589.221C166.357 605.477 179.174 620.563 182.124 633.623C185.074 646.683 184.353 621.172 187.869 609.638C191.386 598.105 193.119 580.929 200.947 566.145C208.776 551.36 200.038 538.303 197.737 530.747C195.436 523.19 196.169 497.993 201.881 491.708C212.487 480.072 229.992 456.084 235.569 463.6C241.387 471.432 265.088 496.289 276.45 508.764C287.812 521.238 282.046 515.055 282.255 527.095C282.464 539.134 285.982 534.943 304.089 545.479C322.196 556.016 343.203 560.77 373.387 570.697C402.103 580.142 419.89 588.576 426.849 604.534C433.726 620.297 436.752 649.451 441.944 679.024C447.09 708.294 453.401 747.78 410.882 732.037C368.363 716.295 309.893 681.894 244.207 707.589C167.428 737.623 35.0866 750.429 -27.9603 699.461C-78.5294 658.571 -106.007 591.451 -193.884 583.25C-230.557 579.828 -264.771 592.939 -267.877 626.228L-306.186 1036.75C-317.783 1161.02 -240.132 1145.33 -183.613 1117.36C-120.546 1086.12 8.49312 1044.37 100.187 1075.95C191.88 1107.52 268.544 1214.46 240.202 1303.93C211.861 1393.4 144.509 1415.2 61.6692 1445.85C-21.1704 1476.51 -27.6889 1552.7 -35.0369 1631.44C-40.6987 1692.11 -6.38554 1694.9 -3.11096 1659.81C-0.0343122 1626.84 -30.9143 1598.38 -75.18 1656.93C-119.446 1715.48 -177.593 1710.05 -239.231 1699.18C-300.869 1688.31 -367.392 1701.29 -372.481 1755.82L-395.2 1999.28" stroke="black" stroke-width="4" stroke-miterlimit="10"/>
<rect x="-44" y="556" width="578" height="125" fill="white"/>
<rect x="-44" y="597" width="99" height="125" fill="white"/>
<rect x="37.5" y="561.5" width="1125" height="113" rx="28.5" fill="white" stroke="#2D2D2D" stroke-width="3"/>
<g filter="url(#filter0_d)">
<path d="M178.489 625.996C178.489 623.98 177.265 622.396 175.393 621.82C177.193 621.172 178.201 619.624 178.201 617.86C178.201 614.764 175.429 613.072 171.937 613.072C169.489 613.072 167.401 613.576 165.457 614.98L166.933 616.708C168.373 615.7 169.921 615.232 171.685 615.232C174.097 615.232 175.681 616.132 175.681 617.932C175.681 619.768 174.313 620.776 172.369 620.776H169.741V622.936H172.333C174.493 622.936 175.969 623.908 175.969 625.888C175.969 627.832 173.629 628.948 171.505 628.948C169.309 628.948 167.905 628.444 166.321 626.968L164.701 628.66C166.789 630.568 168.949 631.18 171.793 631.18C175.357 631.18 178.489 629.2 178.489 625.996ZM197.517 622.144C197.517 619.408 197.157 616.888 195.357 615.088C194.133 613.828 192.441 613.072 190.281 613.072C188.121 613.072 186.429 613.828 185.205 615.088C183.405 616.888 183.045 619.408 183.045 622.144C183.045 624.88 183.405 627.364 185.205 629.2C186.429 630.46 188.121 631.216 190.281 631.216C192.441 631.216 194.133 630.46 195.357 629.2C197.157 627.364 197.517 624.88 197.517 622.144ZM194.925 622.144C194.925 624.124 194.817 626.284 193.521 627.616C192.657 628.48 191.541 628.912 190.281 628.912C189.021 628.912 187.941 628.48 187.077 627.616C185.745 626.284 185.637 624.124 185.637 622.144C185.637 620.128 185.781 617.968 187.077 616.672C187.941 615.808 189.021 615.376 190.281 615.376C191.541 615.376 192.657 615.808 193.521 616.672C194.817 617.968 194.925 620.128 194.925 622.144ZM215.544 631V613.288H204.204V620.884C204.204 628.264 202.044 628.768 200.46 628.768H199.884V631H201.072C204.312 631 206.688 629.056 206.688 621.64V615.52H212.952V631H215.544ZM235.556 622.144C235.556 619.408 235.196 616.888 233.396 615.088C232.172 613.828 230.48 613.072 228.32 613.072C226.16 613.072 224.468 613.828 223.244 615.088C221.444 616.888 221.084 619.408 221.084 622.144C221.084 624.88 221.444 627.364 223.244 629.2C224.468 630.46 226.16 631.216 228.32 631.216C230.48 631.216 232.172 630.46 233.396 629.2C235.196 627.364 235.556 624.88 235.556 622.144ZM232.964 622.144C232.964 624.124 232.856 626.284 231.56 627.616C230.696 628.48 229.58 628.912 228.32 628.912C227.06 628.912 225.98 628.48 225.116 627.616C223.784 626.284 223.676 624.124 223.676 622.144C223.676 620.128 223.82 617.968 225.116 616.672C225.98 615.808 227.06 615.376 228.32 615.376C229.58 615.376 230.696 615.808 231.56 616.672C232.856 617.968 232.964 620.128 232.964 622.144ZM252.562 615.52V613.288H238.09V615.52H244.174V631H246.766V615.52H252.562ZM269.693 622.144C269.693 619.408 269.333 616.888 267.533 615.088C266.309 613.828 264.617 613.072 262.457 613.072C260.297 613.072 258.605 613.828 257.381 615.088C255.581 616.888 255.221 619.408 255.221 622.144C255.221 624.88 255.581 627.364 257.381 629.2C258.605 630.46 260.297 631.216 262.457 631.216C264.617 631.216 266.309 630.46 267.533 629.2C269.333 627.364 269.693 624.88 269.693 622.144ZM267.101 622.144C267.101 624.124 266.993 626.284 265.697 627.616C264.833 628.48 263.717 628.912 262.457 628.912C261.197 628.912 260.117 628.48 259.253 627.616C257.921 626.284 257.813 624.124 257.813 622.144C257.813 620.128 257.957 617.968 259.253 616.672C260.117 615.808 261.197 615.376 262.457 615.376C263.717 615.376 264.833 615.808 265.697 616.672C266.993 617.968 267.101 620.128 267.101 622.144ZM287.667 605.656H285.363C285.219 607.456 284.175 608.356 282.411 608.356C280.647 608.356 279.603 607.456 279.459 605.656H277.155C277.371 608.896 279.423 610.192 282.411 610.192C285.399 610.192 287.451 608.896 287.667 605.656ZM289.539 631V613.288H286.947L277.839 626.932V613.288H275.283V631H277.839L286.947 617.284V631H289.539Z" fill="#2D2D2D"/>
</g>
<g filter="url(#filter1_d)">
<path d="M550.693 631V613.288H536.977V631H539.533V615.52H548.101V631H550.693ZM575.953 631V613.288H573.361V631H575.953ZM570.517 625.672C570.517 622.432 568.285 620.308 564.901 620.308H559.573V613.288H557.017V631H564.901C568.285 631 570.517 628.876 570.517 625.672ZM567.925 625.672C567.925 627.652 566.773 628.768 564.613 628.768H559.573V622.576H564.613C566.773 622.576 567.925 623.692 567.925 625.672ZM595.997 631V613.288H584.657V620.884C584.657 628.264 582.497 628.768 580.913 628.768H580.337V631H581.525C584.765 631 587.141 629.056 587.141 621.64V615.52H593.405V631H595.997ZM616.045 622.828V621.676C616.045 616.348 613.381 613.072 608.773 613.072C604.273 613.072 601.501 616.384 601.501 622.144C601.501 628.408 604.525 631.216 609.241 631.216C612.229 631.216 613.921 630.28 615.721 628.48L613.957 626.932C612.553 628.336 611.365 628.948 609.313 628.948C605.893 628.948 604.093 626.716 604.093 622.828H616.045ZM613.489 620.884H604.093C604.165 619.444 604.201 618.868 604.633 617.932C605.389 616.312 606.865 615.268 608.773 615.268C610.681 615.268 612.157 616.312 612.913 617.932C613.345 618.868 613.381 619.444 613.489 620.884ZM634.271 628.588L632.507 626.896C631.571 627.868 631.139 628.228 630.419 628.552C629.843 628.804 629.231 628.912 628.475 628.912C624.983 628.912 623.183 626.608 623.183 622.144C623.183 617.68 625.019 615.376 628.511 615.376C629.267 615.376 629.915 615.52 630.491 615.772C631.175 616.06 631.607 616.42 632.507 617.356L634.271 615.7C633.083 614.476 632.507 614.044 631.535 613.612C630.671 613.252 629.699 613.072 628.547 613.072C623.579 613.072 620.591 616.492 620.591 622.144C620.591 627.796 623.579 631.216 628.547 631.216C629.699 631.216 630.671 631.036 631.535 630.676C632.507 630.244 633.083 629.812 634.271 628.588ZM652.22 622.144C652.22 619.408 651.86 616.888 650.06 615.088C648.836 613.828 647.144 613.072 644.984 613.072C642.824 613.072 641.132 613.828 639.908 615.088C638.108 616.888 637.748 619.408 637.748 622.144C637.748 624.88 638.108 627.364 639.908 629.2C641.132 630.46 642.824 631.216 644.984 631.216C647.144 631.216 648.836 630.46 650.06 629.2C651.86 627.364 652.22 624.88 652.22 622.144ZM649.628 622.144C649.628 624.124 649.52 626.284 648.224 627.616C647.36 628.48 646.244 628.912 644.984 628.912C643.724 628.912 642.644 628.48 641.78 627.616C640.448 626.284 640.34 624.124 640.34 622.144C640.34 620.128 640.484 617.968 641.78 616.672C642.644 615.808 643.724 615.376 644.984 615.376C646.244 615.376 647.36 615.808 648.224 616.672C649.52 617.968 649.628 620.128 649.628 622.144ZM670.482 628.588L668.718 626.896C667.782 627.868 667.35 628.228 666.63 628.552C666.054 628.804 665.442 628.912 664.686 628.912C661.194 628.912 659.394 626.608 659.394 622.144C659.394 617.68 661.23 615.376 664.722 615.376C665.478 615.376 666.126 615.52 666.702 615.772C667.386 616.06 667.818 616.42 668.718 617.356L670.482 615.7C669.294 614.476 668.718 614.044 667.746 613.612C666.882 613.252 665.91 613.072 664.758 613.072C659.79 613.072 656.802 616.492 656.802 622.144C656.802 627.796 659.79 631.216 664.758 631.216C665.91 631.216 666.882 631.036 667.746 630.676C668.718 630.244 669.294 629.812 670.482 628.588Z" fill="#2D2D2D"/>
</g>
<g filter="url(#filter2_d)">
<path d="M886.469 628.588L884.705 626.896C883.769 627.868 883.337 628.228 882.617 628.552C882.041 628.804 881.429 628.912 880.673 628.912C877.181 628.912 875.381 626.608 875.381 622.144C875.381 617.68 877.217 615.376 880.709 615.376C881.465 615.376 882.113 615.52 882.689 615.772C883.373 616.06 883.805 616.42 884.705 617.356L886.469 615.7C885.281 614.476 884.705 614.044 883.733 613.612C882.869 613.252 881.897 613.072 880.745 613.072C875.777 613.072 872.789 616.492 872.789 622.144C872.789 627.796 875.777 631.216 880.745 631.216C881.897 631.216 882.869 631.036 883.733 630.676C884.705 630.244 885.281 629.812 886.469 628.588ZM914.09 631V613.288H900.374V631H902.93V615.52H911.498V631H914.09ZM933.914 622.144C933.914 619.408 933.554 616.888 931.754 615.088C930.53 613.828 928.838 613.072 926.678 613.072C924.518 613.072 922.826 613.828 921.602 615.088C919.802 616.888 919.442 619.408 919.442 622.144C919.442 624.88 919.802 627.364 921.602 629.2C922.826 630.46 924.518 631.216 926.678 631.216C928.838 631.216 930.53 630.46 931.754 629.2C933.554 627.364 933.914 624.88 933.914 622.144ZM931.322 622.144C931.322 624.124 931.214 626.284 929.918 627.616C929.054 628.48 927.938 628.912 926.678 628.912C925.418 628.912 924.338 628.48 923.474 627.616C922.142 626.284 922.034 624.124 922.034 622.144C922.034 620.128 922.178 617.968 923.474 616.672C924.338 615.808 925.418 615.376 926.678 615.376C927.938 615.376 929.054 615.808 929.918 616.672C931.214 617.968 931.322 620.128 931.322 622.144ZM954.353 636.292V628.768H951.725V613.288H940.601V616.672C940.601 623.116 939.593 625.816 938.261 628.768H936.173V636.292H938.657V631H951.833V636.292H954.353ZM949.133 628.768H941.069C942.221 626.14 943.049 623.548 943.085 618.868V615.52H949.133V628.768ZM970.949 628.588L969.185 626.896C968.249 627.868 967.817 628.228 967.097 628.552C966.521 628.804 965.909 628.912 965.153 628.912C961.661 628.912 959.861 626.608 959.861 622.144C959.861 617.68 961.697 615.376 965.189 615.376C965.945 615.376 966.593 615.52 967.169 615.772C967.853 616.06 968.285 616.42 969.185 617.356L970.949 615.7C969.761 614.476 969.185 614.044 968.213 613.612C967.349 613.252 966.377 613.072 965.225 613.072C960.257 613.072 957.269 616.492 957.269 622.144C957.269 627.796 960.257 631.216 965.225 631.216C966.377 631.216 967.349 631.036 968.213 630.676C969.185 630.244 969.761 629.812 970.949 628.588ZM989.642 626.104C989.642 623.944 988.454 622.54 986.546 621.82C988.346 621.172 989.354 619.84 989.354 617.932C989.354 615.124 987.266 613.288 984.134 613.288H975.926V631H984.35C987.662 631 989.642 629.128 989.642 626.104ZM986.798 618.148C986.798 619.84 985.718 620.812 983.666 620.812H978.482V615.52H983.666C985.682 615.52 986.798 616.456 986.798 618.148ZM987.086 625.852C987.086 627.616 985.898 628.768 983.882 628.768H978.482V622.936H983.882C985.898 622.936 987.086 624.088 987.086 625.852ZM1008.69 622.828V621.676C1008.69 616.348 1006.03 613.072 1001.42 613.072C996.92 613.072 994.148 616.384 994.148 622.144C994.148 628.408 997.172 631.216 1001.89 631.216C1004.88 631.216 1006.57 630.28 1008.37 628.48L1006.6 626.932C1005.2 628.336 1004.01 628.948 1001.96 628.948C998.54 628.948 996.74 626.716 996.74 622.828H1008.69ZM1006.14 620.884H996.74C996.812 619.444 996.848 618.868 997.28 617.932C998.036 616.312 999.512 615.268 1001.42 615.268C1003.33 615.268 1004.8 616.312 1005.56 617.932C1005.99 618.868 1006.03 619.444 1006.14 620.884ZM1025.66 615.52V613.288H1011.19V615.52H1017.27V631H1019.87V615.52H1025.66ZM1031.99 631V613.288H1029.4V631H1031.99ZM1043.77 631L1035.09 621.64L1043.05 613.288H1039.84L1032.03 621.82L1040.42 631H1043.77ZM1060.05 622.144C1060.05 619.408 1059.69 616.888 1057.89 615.088C1056.67 613.828 1054.98 613.072 1052.82 613.072C1050.66 613.072 1048.97 613.828 1047.74 615.088C1045.94 616.888 1045.58 619.408 1045.58 622.144C1045.58 624.88 1045.94 627.364 1047.74 629.2C1048.97 630.46 1050.66 631.216 1052.82 631.216C1054.98 631.216 1056.67 630.46 1057.89 629.2C1059.69 627.364 1060.05 624.88 1060.05 622.144ZM1057.46 622.144C1057.46 624.124 1057.35 626.284 1056.06 627.616C1055.19 628.48 1054.08 628.912 1052.82 628.912C1051.56 628.912 1050.48 628.48 1049.61 627.616C1048.28 626.284 1048.17 624.124 1048.17 622.144C1048.17 620.128 1048.32 617.968 1049.61 616.672C1050.48 615.808 1051.56 615.376 1052.82 615.376C1054.08 615.376 1055.19 615.808 1056.06 616.672C1057.35 617.968 1057.46 620.128 1057.46 622.144ZM1078.03 605.656H1075.72C1075.58 607.456 1074.54 608.356 1072.77 608.356C1071.01 608.356 1069.96 607.456 1069.82 605.656H1067.52C1067.73 608.896 1069.78 610.192 1072.77 610.192C1075.76 610.192 1077.81 608.896 1078.03 605.656ZM1079.9 631V613.288H1077.31L1068.2 626.932V613.288H1065.64V631H1068.2L1077.31 617.284V631H1079.9Z" fill="#2D2D2D"/>
</g>
<path d="M429.399 321V275.432H420.503V321H429.399ZM456.343 321L439.511 296.808L454.807 275.432H444.183L429.463 297.128L445.463 321H456.343ZM485.951 321V299.048C485.951 291.24 481.151 287.272 471.743 287.272C466.175 287.272 463.039 288.424 459.775 292.008L465.023 297.192C466.815 295.144 468.415 294.312 471.423 294.312C475.839 294.312 477.631 295.912 477.631 299.56V301.224H469.887C462.015 301.224 458.367 305.576 458.367 310.888C458.367 313.832 459.327 316.52 461.119 318.376C463.039 320.296 465.855 321.32 469.631 321.32C473.471 321.32 475.583 320.36 477.823 318.12V321H485.951ZM477.631 308.712C477.631 310.824 477.311 312.104 476.351 312.936C474.943 314.28 473.471 314.536 471.423 314.536C467.967 314.536 466.367 313.064 466.367 310.76C466.367 308.264 467.967 306.92 471.295 306.92H477.631V308.712ZM503.306 321V287.656H494.922V321H503.306ZM524.81 321L512.266 303.208L524.042 287.656H514.314L503.37 303.528L514.826 321H524.81ZM567.793 295.016V287.656H540.017V295.016H549.809V321H558.193V295.016H567.793ZM600.252 306.92V303.4C600.252 293.928 595.004 287.272 585.724 287.272C577.084 287.272 571.196 293.416 571.196 304.296C571.196 317.8 578.748 321.384 586.62 321.384C592.636 321.384 595.9 319.592 599.292 316.136L594.236 311.208C592.124 313.256 590.332 314.344 586.684 314.344C581.948 314.344 579.388 311.272 579.388 306.92H600.252ZM592.06 301.224H579.388C579.452 299.752 579.58 298.856 580.156 297.64C581.052 295.656 582.908 294.184 585.724 294.184C588.54 294.184 590.396 295.656 591.292 297.64C591.868 298.856 591.996 299.752 592.06 301.224ZM621.17 313.896C619.57 313.896 618.162 313.448 617.202 312.296C615.986 310.952 615.346 308.392 615.346 304.296C615.346 300.648 615.986 298.088 617.01 296.744C618.034 295.464 619.506 295.016 621.17 295.016C622.834 295.016 624.306 295.528 625.266 296.808C626.354 298.152 626.93 300.712 626.93 304.36C626.93 308.264 626.29 310.888 625.202 312.232C624.178 313.448 622.77 313.896 621.17 313.896ZM621.298 321.384C625.266 321.384 628.786 320.04 631.154 317.544C634.034 314.536 635.25 310.824 635.25 304.168C635.25 298.472 633.97 293.416 631.026 290.664C629.17 289 626.994 287.976 622.834 287.976C619.186 287.976 615.794 289.64 614.514 291.816C614.514 287.784 615.666 285.736 618.738 284.136C622.514 282.152 628.146 282.536 632.37 282.216V275.048C622.514 275.112 616.498 275.56 612.338 278.76C608.114 282.088 607.026 285.928 607.026 301.544C607.026 307.752 607.73 313.064 609.714 316.2C611.954 319.72 616.37 321.384 621.298 321.384ZM670.377 306.92V303.4C670.377 293.928 665.129 287.272 655.849 287.272C647.209 287.272 641.321 293.416 641.321 304.296C641.321 317.8 648.873 321.384 656.745 321.384C662.761 321.384 666.025 319.592 669.417 316.136L664.361 311.208C662.249 313.256 660.457 314.344 656.809 314.344C652.073 314.344 649.513 311.272 649.513 306.92H670.377ZM662.185 301.224H649.513C649.577 299.752 649.705 298.856 650.281 297.64C651.177 295.656 653.033 294.184 655.849 294.184C658.665 294.184 660.521 295.656 661.417 297.64C661.993 298.856 662.121 299.752 662.185 301.224ZM716.73 295.016V287.656H688.954V295.016H698.746V321H707.13V295.016H716.73ZM747.013 321V299.048C747.013 291.24 742.213 287.272 732.805 287.272C727.237 287.272 724.101 288.424 720.837 292.008L726.085 297.192C727.877 295.144 729.477 294.312 732.485 294.312C736.901 294.312 738.693 295.912 738.693 299.56V301.224H730.949C723.077 301.224 719.429 305.576 719.429 310.888C719.429 313.832 720.389 316.52 722.181 318.376C724.101 320.296 726.917 321.32 730.693 321.32C734.533 321.32 736.645 320.36 738.885 318.12V321H747.013ZM738.693 308.712C738.693 310.824 738.373 312.104 737.413 312.936C736.005 314.28 734.533 314.536 732.485 314.536C729.029 314.536 727.429 313.064 727.429 310.76C727.429 308.264 729.029 306.92 732.357 306.92H738.693V308.712ZM764.369 321V287.656H755.985V321H764.369ZM785.873 321L773.329 303.208L785.104 287.656H775.377L764.433 303.528L775.889 321H785.873ZM815.738 304.296C815.738 298.28 814.97 294.568 811.962 291.368C809.85 289.128 806.522 287.272 801.594 287.272C796.666 287.272 793.402 289.192 791.29 291.368C788.282 294.568 787.514 298.28 787.514 304.296C787.514 310.312 788.282 314.088 791.29 317.288C793.402 319.464 796.666 321.384 801.594 321.384C806.522 321.384 809.85 319.464 811.962 317.288C815.034 314.152 815.738 310.312 815.738 304.296ZM807.418 304.296C807.418 307.752 807.226 310.76 805.498 312.424C804.538 313.384 803.258 313.896 801.594 313.896C799.994 313.896 798.714 313.384 797.754 312.424C796.026 310.76 795.834 307.752 795.834 304.296C795.834 300.904 796.026 297.896 797.754 296.232C798.714 295.272 799.994 294.76 801.594 294.76C803.258 294.76 804.538 295.272 805.498 296.232C807.226 297.896 807.418 300.904 807.418 304.296ZM851.064 306.92V303.4C851.064 293.928 845.816 287.272 836.536 287.272C827.896 287.272 822.008 293.416 822.008 304.296C822.008 317.8 829.56 321.384 837.432 321.384C843.448 321.384 846.712 319.592 850.104 316.136L845.048 311.208C842.936 313.256 841.144 314.344 837.496 314.344C832.76 314.344 830.2 311.272 830.2 306.92H851.064ZM842.872 301.224H830.2C830.264 299.752 830.392 298.856 830.968 297.64C831.864 295.656 833.72 294.184 836.536 294.184C839.352 294.184 841.208 295.656 842.104 297.64C842.68 298.856 842.808 299.752 842.872 301.224ZM505.591 401V355.432H497.655L479.927 384.616V355.432H471.031V401H478.967L496.695 371.752V401H505.591ZM542.778 401V367.656H518.394V381.16C518.394 393.128 515.642 393.64 512.826 393.64H511.802V401H515.77C522.554 401 526.458 397.288 526.458 383.016V375.016H534.458V401H542.778ZM578.957 384.296C578.957 378.28 578.189 374.568 575.181 371.368C573.069 369.128 569.741 367.272 564.813 367.272C559.885 367.272 556.621 369.192 554.509 371.368C551.501 374.568 550.733 378.28 550.733 384.296C550.733 390.312 551.501 394.088 554.509 397.288C556.621 399.464 559.885 401.384 564.813 401.384C569.741 401.384 573.069 399.464 575.181 397.288C578.253 394.152 578.957 390.312 578.957 384.296ZM570.637 384.296C570.637 387.752 570.445 390.76 568.717 392.424C567.757 393.384 566.477 393.896 564.813 393.896C563.213 393.896 561.933 393.384 560.973 392.424C559.245 390.76 559.053 387.752 559.053 384.296C559.053 380.904 559.245 377.896 560.973 376.232C561.933 375.272 563.213 374.76 564.813 374.76C566.477 374.76 567.757 375.272 568.717 376.232C570.445 377.896 570.637 380.904 570.637 384.296ZM614.283 401V367.656H605.899V380.264H595.211V367.656H586.827V401H595.211V387.624H605.899V401H614.283ZM680.373 401V355.432H671.605L659.765 380.072L647.861 355.432H639.093V401H647.989V374.44L656.757 391.72H662.773L671.477 374.44V401H680.373ZM715.544 401V379.048C715.544 371.24 710.744 367.272 701.336 367.272C695.768 367.272 692.632 368.424 689.368 372.008L694.616 377.192C696.408 375.144 698.008 374.312 701.016 374.312C705.432 374.312 707.224 375.912 707.224 379.56V381.224H699.48C691.608 381.224 687.96 385.576 687.96 390.888C687.96 393.832 688.92 396.52 690.712 398.376C692.632 400.296 695.448 401.32 699.224 401.32C703.064 401.32 705.176 400.36 707.416 398.12V401H715.544ZM707.224 388.712C707.224 390.824 706.904 392.104 705.944 392.936C704.536 394.28 703.064 394.536 701.016 394.536C697.56 394.536 695.96 393.064 695.96 390.76C695.96 388.264 697.56 386.92 700.888 386.92H707.224V388.712ZM748.772 396.84L743.14 391.272C741.412 393.128 739.94 393.896 737.764 393.896C735.78 393.896 734.244 393.192 733.028 391.72C731.748 390.12 731.172 387.816 731.172 384.296C731.172 380.776 731.748 378.536 733.028 376.936C734.244 375.464 735.78 374.76 737.764 374.76C739.94 374.76 741.412 375.528 743.14 377.384L748.772 371.752C745.828 368.68 742.372 367.272 737.764 367.272C731.108 367.272 722.852 370.792 722.852 384.296C722.852 397.8 731.108 401.384 737.764 401.384C742.372 401.384 745.828 399.912 748.772 396.84ZM763.65 401V367.656H755.266V401H763.65ZM785.154 401L772.61 383.208L784.386 367.656H774.658L763.714 383.528L775.17 401H785.154ZM815.949 367.848C815.949 359.72 809.677 355.048 802.445 355.048C795.021 355.048 789.005 359.912 789.005 367.848H797.325C797.325 364.904 799.053 362.536 802.445 362.536C805.645 362.536 807.629 364.776 807.629 367.784C807.629 369.192 806.797 370.728 805.773 372.072L801.037 378.152C799.373 380.328 798.605 382.056 798.605 384.808V386.728H806.925V385.384C806.925 384.296 807.437 382.952 808.077 382.12L812.813 375.848C814.605 373.48 815.949 371.048 815.949 367.848ZM807.181 401V392.488H798.349V401H807.181Z" fill="#2D2D2D"/>
<g clip-path="url(#clip1)">
<path fill-rule="evenodd" clip-rule="evenodd" d="M32.4545 744.072L48.8076 721.294L19.8984 719L32.4545 744.072Z" fill="black"/>
</g>
</g>
<defs>
<filter id="filter0_d" x="160.702" y="605.656" width="132.837" height="33.56" filterUnits="userSpaceOnUse" color-interpolation-filters="sRGB">
<feFlood flood-opacity="0" result="BackgroundImageFix"/>
<feColorMatrix in="SourceAlpha" type="matrix" values="0 0 0 0 0 0 0 0 0 0 0 0 0 0 0 0 0 0 127 0"/>
<feOffset dy="4"/>
<feGaussianBlur stdDeviation="2"/>
<feColorMatrix type="matrix" values="0 0 0 0 0 0 0 0 0 0 0 0 0 0 0 0 0 0 0.25 0"/>
<feBlend mode="normal" in2="BackgroundImageFix" result="effect1_dropShadow"/>
<feBlend mode="normal" in="SourceGraphic" in2="effect1_dropShadow" result="shape"/>
</filter>
<filter id="filter1_d" x="532.977" y="613.072" width="141.505" height="26.144" filterUnits="userSpaceOnUse" color-interpolation-filters="sRGB">
<feFlood flood-opacity="0" result="BackgroundImageFix"/>
<feColorMatrix in="SourceAlpha" type="matrix" values="0 0 0 0 0 0 0 0 0 0 0 0 0 0 0 0 0 0 127 0"/>
<feOffset dy="4"/>
<feGaussianBlur stdDeviation="2"/>
<feColorMatrix type="matrix" values="0 0 0 0 0 0 0 0 0 0 0 0 0 0 0 0 0 0 0.25 0"/>
<feBlend mode="normal" in2="BackgroundImageFix" result="effect1_dropShadow"/>
<feBlend mode="normal" in="SourceGraphic" in2="effect1_dropShadow" result="shape"/>
</filter>
<filter id="filter2_d" x="868.789" y="605.656" width="215.112" height="38.636" filterUnits="userSpaceOnUse" color-interpolation-filters="sRGB">
<feFlood flood-opacity="0" result="BackgroundImageFix"/>
<feColorMatrix in="SourceAlpha" type="matrix" values="0 0 0 0 0 0 0 0 0 0 0 0 0 0 0 0 0 0 127 0"/>
<feOffset dy="4"/>
<feGaussianBlur stdDeviation="2"/>
<feColorMatrix type="matrix" values="0 0 0 0 0 0 0 0 0 0 0 0 0 0 0 0 0 0 0.25 0"/>
<feBlend mode="normal" in2="BackgroundImageFix" result="effect1_dropShadow"/>
<feBlend mode="normal" in="SourceGraphic" in2="effect1_dropShadow" result="shape"/>
</filter>
<clipPath id="clip0">
<rect width="1200" height="800" fill="white"/>
</clipPath>
<clipPath id="clip1">
<rect width="29" height="24" fill="white" transform="translate(19.8984 719) rotate(4.5371)"/>
</clipPath>
</defs>
</svg>
