<svg width="1200" height="800" viewBox="0 0 1200 800" fill="none" xmlns="http://www.w3.org/2000/svg">
<g clip-path="url(#clip0)">
<rect width="1200" height="800" fill="white"/>
<path d="M954.462 47V39.44C954.462 38.072 954.03 36.968 953.19 36.152C952.47 35.456 951.414 35.048 950.142 35.048C948.486 35.048 947.166 35.72 946.254 37.016C945.534 35.72 944.262 35.048 942.63 35.048C941.31 35.048 940.134 35.528 939.294 36.488V35.192H937.566V47H939.294V39.728C939.294 37.664 940.47 36.584 942.246 36.584C944.022 36.584 945.15 37.64 945.15 39.728V47H946.878V39.536C946.878 37.664 948.102 36.584 949.83 36.584C951.606 36.584 952.734 37.64 952.734 39.728V47H954.462ZM967.084 47V38.984C967.084 36.44 965.548 35.048 962.356 35.048C960.412 35.048 959.212 35.456 958.18 36.824L959.356 37.904C960.076 36.92 960.844 36.536 962.332 36.536C964.516 36.536 965.356 37.424 965.356 39.128V40.256H961.828C959.188 40.256 957.724 41.576 957.724 43.664C957.724 44.6 958.012 45.488 958.612 46.064C959.428 46.856 960.316 47.144 961.948 47.144C963.532 47.144 964.42 46.808 965.356 45.872V47H967.084ZM965.356 42.824C965.356 43.808 965.164 44.48 964.756 44.864C963.988 45.56 963.124 45.656 962.14 45.656C960.244 45.656 959.404 45.008 959.404 43.64C959.404 42.248 960.292 41.552 962.068 41.552H965.356V42.824ZM980.053 47V29.912H978.325V36.56C977.341 35.336 976.309 35.048 974.989 35.048C973.765 35.048 972.733 35.456 972.109 36.08C970.933 37.256 970.669 39.2 970.669 41.096C970.669 42.992 970.933 44.912 972.109 46.112C972.733 46.736 973.765 47.144 974.989 47.144C976.333 47.144 977.365 46.832 978.349 45.584V47H980.053ZM978.325 41.096C978.325 43.4 977.941 45.608 975.373 45.608C972.781 45.608 972.397 43.4 972.397 41.096C972.397 38.792 972.781 36.584 975.373 36.584C977.941 36.584 978.325 38.792 978.325 41.096ZM993.419 41.552V40.784C993.419 37.232 991.643 35.048 988.571 35.048C985.571 35.048 983.723 37.256 983.723 41.096C983.723 45.272 985.739 47.144 988.883 47.144C990.875 47.144 992.003 46.52 993.203 45.32L992.027 44.288C991.091 45.224 990.299 45.632 988.931 45.632C986.651 45.632 985.451 44.144 985.451 41.552H993.419ZM991.715 40.256H985.451C985.499 39.296 985.523 38.912 985.811 38.288C986.315 37.208 987.299 36.512 988.571 36.512C989.843 36.512 990.827 37.208 991.331 38.288C991.619 38.912 991.643 39.296 991.715 40.256ZM1012.46 41.096C1012.46 39.2 1012.19 37.256 1011.02 36.08C1010.39 35.456 1009.36 35.048 1008.14 35.048C1006.84 35.048 1005.79 35.336 1004.8 36.56V29.912H1003.07V47H1004.8V45.584C1005.79 46.832 1006.82 47.144 1008.14 47.144C1009.36 47.144 1010.39 46.736 1011.02 46.112C1012.19 44.912 1012.46 42.992 1012.46 41.096ZM1010.73 41.096C1010.73 43.4 1010.35 45.608 1007.78 45.608C1005.19 45.608 1004.8 43.4 1004.8 41.096C1004.8 38.792 1005.19 36.584 1007.78 36.584C1010.35 36.584 1010.73 38.792 1010.73 41.096ZM1024.46 35.192H1022.58L1019.37 44.672L1016.13 35.192H1014.26L1018.5 46.76L1017.66 49.064C1017.28 50.144 1016.92 50.528 1015.72 50.528H1015.19V52.064H1015.94C1016.78 52.064 1017.62 51.848 1018.24 51.248C1018.58 50.936 1018.84 50.504 1019.08 49.856L1024.46 35.192ZM1042.42 47V29.912H1039.3V35.6C1038.48 34.688 1037.52 34.352 1036.25 34.352C1035 34.352 1033.92 34.76 1033.22 35.48C1032.02 36.704 1031.93 38.648 1031.93 40.736C1031.93 42.848 1032.02 44.792 1033.22 46.016C1033.92 46.736 1035.02 47.144 1036.27 47.144C1037.59 47.144 1038.5 46.784 1039.37 45.824V47H1042.42ZM1039.3 40.736C1039.3 42.752 1039.03 44.336 1037.16 44.336C1035.29 44.336 1035.05 42.752 1035.05 40.736C1035.05 38.72 1035.29 37.16 1037.16 37.16C1039.03 37.16 1039.3 38.72 1039.3 40.736ZM1055.36 47V38.768C1055.36 35.84 1053.56 34.352 1050.04 34.352C1047.95 34.352 1046.77 34.784 1045.55 36.128L1047.52 38.072C1048.19 37.304 1048.79 36.992 1049.92 36.992C1051.57 36.992 1052.24 37.592 1052.24 38.96V39.584H1049.34C1046.39 39.584 1045.02 41.216 1045.02 43.208C1045.02 44.312 1045.38 45.32 1046.05 46.016C1046.77 46.736 1047.83 47.12 1049.24 47.12C1050.68 47.12 1051.48 46.76 1052.32 45.92V47H1055.36ZM1052.24 42.392C1052.24 43.184 1052.12 43.664 1051.76 43.976C1051.24 44.48 1050.68 44.576 1049.92 44.576C1048.62 44.576 1048.02 44.024 1048.02 43.16C1048.02 42.224 1048.62 41.72 1049.87 41.72H1052.24V42.392ZM1068.69 47V29.912H1065.57V35.6C1064.75 34.688 1063.79 34.352 1062.52 34.352C1061.27 34.352 1060.19 34.76 1059.5 35.48C1058.3 36.704 1058.2 38.648 1058.2 40.736C1058.2 42.848 1058.3 44.792 1059.5 46.016C1060.19 46.736 1061.3 47.144 1062.54 47.144C1063.86 47.144 1064.78 46.784 1065.64 45.824V47H1068.69ZM1065.57 40.736C1065.57 42.752 1065.3 44.336 1063.43 44.336C1061.56 44.336 1061.32 42.752 1061.32 40.736C1061.32 38.72 1061.56 37.16 1063.43 37.16C1065.3 37.16 1065.57 38.72 1065.57 40.736ZM1081.64 47V38.768C1081.64 35.84 1079.84 34.352 1076.31 34.352C1074.22 34.352 1073.05 34.784 1071.82 36.128L1073.79 38.072C1074.46 37.304 1075.06 36.992 1076.19 36.992C1077.85 36.992 1078.52 37.592 1078.52 38.96V39.584H1075.61C1072.66 39.584 1071.29 41.216 1071.29 43.208C1071.29 44.312 1071.65 45.32 1072.33 46.016C1073.05 46.736 1074.1 47.12 1075.52 47.12C1076.96 47.12 1077.75 46.76 1078.59 45.92V47H1081.64ZM1078.52 42.392C1078.52 43.184 1078.4 43.664 1078.04 43.976C1077.51 44.48 1076.96 44.576 1076.19 44.576C1074.89 44.576 1074.29 44.024 1074.29 43.16C1074.29 42.224 1074.89 41.72 1076.14 41.72H1078.52V42.392ZM1099.81 47V38.984C1099.81 36.44 1098.27 35.048 1095.08 35.048C1093.14 35.048 1091.94 35.456 1090.91 36.824L1092.08 37.904C1092.8 36.92 1093.57 36.536 1095.06 36.536C1097.24 36.536 1098.08 37.424 1098.08 39.128V40.256H1094.55C1091.91 40.256 1090.45 41.576 1090.45 43.664C1090.45 44.6 1090.74 45.488 1091.34 46.064C1092.15 46.856 1093.04 47.144 1094.67 47.144C1096.26 47.144 1097.15 46.808 1098.08 45.872V47H1099.81ZM1098.08 42.824C1098.08 43.808 1097.89 44.48 1097.48 44.864C1096.71 45.56 1095.85 45.656 1094.87 45.656C1092.97 45.656 1092.13 45.008 1092.13 43.64C1092.13 42.248 1093.02 41.552 1094.79 41.552H1098.08V42.824ZM1112.73 47.36V35.192H1111.03V36.584C1110.07 35.336 1109.01 35.048 1107.72 35.048C1106.52 35.048 1105.46 35.456 1104.84 36.08C1103.66 37.256 1103.4 39.08 1103.4 41C1103.4 42.92 1103.66 44.744 1104.84 45.92C1105.46 46.544 1106.49 46.976 1107.69 46.976C1108.96 46.976 1110.04 46.664 1111 45.44V47.288C1111 49.304 1110.04 50.912 1107.76 50.912C1106.4 50.912 1105.8 50.504 1104.93 49.736L1103.8 50.84C1105.05 51.968 1106.04 52.424 1107.81 52.424C1110.91 52.424 1112.73 50.288 1112.73 47.36ZM1111 41C1111 43.208 1110.64 45.416 1108.08 45.416C1105.51 45.416 1105.12 43.208 1105.12 41C1105.12 38.792 1105.51 36.584 1108.08 36.584C1110.64 36.584 1111 38.792 1111 41ZM1126.1 41.552V40.784C1126.1 37.232 1124.32 35.048 1121.25 35.048C1118.25 35.048 1116.4 37.256 1116.4 41.096C1116.4 45.272 1118.42 47.144 1121.56 47.144C1123.55 47.144 1124.68 46.52 1125.88 45.32L1124.71 44.288C1123.77 45.224 1122.98 45.632 1121.61 45.632C1119.33 45.632 1118.13 44.144 1118.13 41.552H1126.1ZM1124.39 40.256H1118.13C1118.18 39.296 1118.2 38.912 1118.49 38.288C1118.99 37.208 1119.98 36.512 1121.25 36.512C1122.52 36.512 1123.51 37.208 1124.01 38.288C1124.3 38.912 1124.32 39.296 1124.39 40.256ZM1139.07 47V39.44C1139.07 38.072 1138.68 36.968 1137.84 36.152C1137.12 35.432 1136.09 35.048 1134.82 35.048C1133.5 35.048 1132.35 35.528 1131.51 36.488V35.192H1129.78V47H1131.51V39.728C1131.51 37.664 1132.66 36.584 1134.43 36.584C1136.21 36.584 1137.34 37.64 1137.34 39.728V47H1139.07ZM1151.73 45.392L1150.55 44.264C1149.66 45.248 1148.97 45.608 1147.84 45.608C1146.69 45.608 1145.73 45.152 1145.1 44.264C1144.55 43.496 1144.33 42.584 1144.33 41.096C1144.33 39.608 1144.55 38.696 1145.1 37.928C1145.73 37.04 1146.69 36.584 1147.84 36.584C1148.97 36.584 1149.66 36.92 1150.55 37.904L1151.73 36.8C1150.5 35.48 1149.47 35.048 1147.84 35.048C1144.86 35.048 1142.61 37.064 1142.61 41.096C1142.61 45.128 1144.86 47.144 1147.84 47.144C1149.47 47.144 1150.5 46.712 1151.73 45.392ZM1163.32 35.192H1161.45L1158.24 44.672L1155 35.192H1153.12L1157.37 46.76L1156.53 49.064C1156.15 50.144 1155.79 50.528 1154.59 50.528H1154.06V52.064H1154.8C1155.64 52.064 1156.48 51.848 1157.11 51.248C1157.44 50.936 1157.71 50.504 1157.95 49.856L1163.32 35.192Z" fill="#2D2D2D"/>
<g clip-path="url(#clip1)">
<path d="M186.335 412.324C187.67 415.889 184.878 413.804 191.293 420.026C198.788 427.307 216.982 425.393 210.76 416.621C203.421 406.299 192.658 410.023 212.3 425.505C237.829 445.614 252.6 414.138 247.03 417.601C241.46 421.063 243.501 432.51 251.773 426.915C260.045 421.32 262.082 417.303 266.388 419.073C270.694 420.843 281.908 444.326 294.702 451.559C307.496 458.791 327.301 449.191 327.185 440.102C327.07 431.013 325.904 430.112 320.635 440.324C315.367 450.535 315.163 456.47 311.397 473.293C307.631 490.116 308.313 496.614 289.602 514.911C270.891 533.208 255.187 546.843 260.832 531.202C264.153 521.992 273.794 513.337 281.893 499.248C291.623 482.292 287.113 473.755 278.227 477.596C269.34 481.437 264.036 469.584 249.916 465.725C235.796 461.866 233.947 464.463 223.588 463.345C213.229 462.228 217.589 437.976 224.905 436.93C232.221 435.883 231.831 444.961 232.222 451.46C232.998 464.468 228.099 467.351 212.839 462.474C200.25 458.445 192.28 462.591 181.063 468.593C169.845 474.595 159.183 481.095 155.698 475.563C152.214 470.032 158.106 471.117 174.708 479.694C191.311 488.271 200.372 493.844 213.984 490.84C227.595 487.835 233.77 493.656 242.359 494.031C250.948 494.405 259.883 487.04 266.616 483.121C273.349 479.203 279.805 485.34 273.487 484.568C267.17 483.797 265.211 485.152 253.155 478.089C245.523 473.619 244.278 470.574 234.748 473.494C223.569 476.919 220.896 477.416 210.827 473.602C202.653 470.502 194.262 469.38 188.327 471.178C182.392 472.976 158.142 483.213 146.941 476.039C123.584 461.078 145.255 498.976 123.388 487.333C103.633 476.825 102.457 479.892 107.759 493.122C113.493 507.427 121.404 532.333 138.158 550.846C150.455 564.402 169.163 580.413 204.767 581.322C240.738 582.221 270.38 561.315 293.258 536.548C316.629 511.238 329.918 494.567 334.025 474.634C337.437 458.063 340.452 395.491 346.228 378.035C352.226 359.877 362.03 338.821 363.466 346.12C364.903 353.418 364.221 360.102 361.408 374.066C358.595 388.031 351.357 411.326 346.386 422.004C341.414 432.683 342.291 421.49 342.384 411.17C342.477 400.849 350.223 362.544 356.903 338.203C363.584 313.861 369.107 307.787 372.261 279.457C375.416 251.128 376.772 223.712 368.807 206.835C360.841 189.957 357.892 196.091 355.295 169.242C352.698 142.394 347.698 127.274 337.671 117.545C327.644 107.816 316.034 97.1141 295.77 89.2273C275.507 81.3405 243.414 67.5023 219.355 67.2227C195.295 66.9432 165.755 75.0056 153.422 81.3468C141.089 87.6881 145.036 84.2304 121.587 96.1464C98.1366 108.062 79.3027 112.668 66.6518 129.602C54.0009 146.536 44.6339 173.537 44.7242 201.05C44.777 217.151 41.2894 223.116 41.8985 251.55C42.7223 291.257 54.0673 303.937 43.6314 304.001C33.1955 304.065 43.8746 318.601 52.1843 338.224C60.4939 357.847 56.8873 360.612 58.5426 376.497C60.1978 392.382 67.9789 412.337 63.7415 427.643C59.504 442.948 50.7214 431.964 44.2957 422.372C37.87 412.781 43.9695 398.679 38.6069 383.1C33.2443 367.521 28.0758 342.62 27.8808 328.512C27.6858 314.403 56.9655 308.636 59.8076 329.464C62.6497 350.293 76.6925 372.358 75.1079 349.387C73.5233 326.415 97.1853 312.515 108.524 297.9C119.863 283.284 133.446 279.553 145.155 275.596C156.864 271.64 166.419 272.273 181.017 287.914C195.615 303.555 207.527 316.996 194.431 309.759C181.335 302.522 167.834 289.533 147.847 292.227C127.859 294.92 112.893 295.549 110.633 302.518C108.373 309.488 101.524 337.737 110.402 337.211C119.279 336.686 124.499 333.066 137.401 326.146C150.304 319.227 164.407 316.519 173.582 322.387C182.372 328.01 199.507 337.757 192.505 336.661C185.503 335.564 169.565 335.154 155.699 335.609C150.843 335.769 149.503 336.661 141.112 336.675C132.72 336.69 127.387 337.41 133.204 333.18C142.136 326.704 148.381 319.98 163.265 323.575C178.148 327.169 186.253 335.062 181.756 335.778C177.259 336.494 147.563 338.13 147.51 331.809C147.414 320.056 165.015 319.607 166.441 328.332C168.797 342.776 135.536 330.977 118.728 339.956C101.919 348.935 98.1535 358.04 108.351 352.698C118.549 347.356 124.46 340.81 134.717 346.402C144.974 351.994 163.509 355.011 174.108 352.675C184.706 350.339 195.574 349.45 197.69 342.761C199.806 336.071 203.883 320.567 207.025 325.538C210.167 330.509 211.856 369.486 213.055 382.761C214.529 399.066 215.431 429.851 227.365 430.768C239.298 431.685 241.722 422.724 242.419 407.252C242.994 394.617 235.681 346.414 242.554 328.048C249.427 309.682 256.185 310.318 278.884 299.739C301.583 289.159 300.457 287.238 311.165 298.017C321.873 308.797 335.106 333.806 330.185 330.912C325.265 328.018 311.999 314.123 299.262 310.014C286.524 305.905 270.646 310.609 261.538 315.902C252.43 321.194 245.732 333.871 247.087 338.938C248.442 344.005 255.942 348.095 258.668 345.888C276.775 331.139 286.793 335.334 292.027 337.857C297.262 340.379 302.676 344.307 311.744 351.269C320.813 358.231 321.115 350.184 315.262 345.224C309.408 340.264 295.361 332.462 280.534 332.492C265.707 332.522 259.826 334.489 254.24 338.252C248.655 342.016 254.457 344.982 265.26 346.157C275.941 347.318 276.321 347.707 285.932 348.466C291.06 348.864 292.355 342.712 291.471 339.35C290.29 334.87 278.337 333.091 276.499 338.703C273.581 347.61 285.145 347.33 289.314 347.906C299.265 349.279 307.407 349.154 317.449 357.462C327.491 365.77 324.11 371.292 316.997 364.982C309.885 358.672 310.834 357.531 300.189 360.602C289.545 363.674 282.901 365.868 275.827 363.902C263.46 360.463 254.395 350.998 254.204 350.749C254.013 350.5 251.87 346.252 258.645 345.903C265.421 345.555 292.015 349.305 298.301 350.043C304.588 350.781 316.034 354.664 328.996 356.256C341.957 357.848 349.936 347.808 351.203 332.053C352.47 316.298 343.522 275.528 341.073 264.524C338.623 253.521 334.086 231.812 334.564 219.174C335.042 206.536 320.388 180.817 301.819 167.093C283.25 153.37 275.945 149.728 250.321 145.661C224.696 141.593 160.685 142.6 141.447 151.396C122.208 160.191 98.868 179.124 100.766 200.298C102.664 221.472 92.1357 232.658 77.2147 255.249C62.2938 277.839 61.7115 289.897 64.1235 305.071C65.7162 315.108 65.6247 352.702 64.0679 363.124C62.5111 373.546 66.433 413.599 66.9734 427.531C67.5139 441.462 64.7571 459.702 68.1884 475.981C71.6197 492.26 89.3651 511.753 101.468 524.317C113.572 536.882 131.046 564.79 144.658 579.924C158.27 595.059 155.642 604.481 171.801 617.139C187.959 629.797 200.453 625.098 211.848 643.032C223.243 660.966 210.045 663.678 216.464 682.166C222.882 700.655 235.992 718.06 238.569 732.825C241.146 747.589 241.563 718.931 245.9 706.121C250.237 693.311 252.902 674.093 262.072 657.785C271.242 641.477 262.405 626.508 260.267 617.938C258.129 609.367 260.111 581.122 266.582 574.277C278.545 561.61 298.607 535.333 304.246 543.973C310.158 552.977 334.582 581.747 346.256 596.17C357.931 610.594 351.995 603.419 351.66 616.956C351.324 630.492 355.31 625.905 374.368 638.397C393.426 650.888 415.867 657.013 447.986 669.253C478.535 680.908 497.339 691.033 504.107 709.2C510.786 727.149 511.55 742.283 517.895 775.328C527.432 825.048 461.585 818.48 479.124 800.58C496.663 782.679 523.021 854.698 448.157 841.852C338.249 823.003 260.865 821.839 165.434 828.946C94.3979 834.238 89.0269 821.802 90.3702 781.753" stroke="black" stroke-width="4" stroke-miterlimit="10"/>
<path fill-rule="evenodd" clip-rule="evenodd" d="M90.8317 767.828L78.7684 787.166L101.572 787.931L90.8317 767.828Z" fill="black"/>
</g>
<rect x="-34" y="617" width="578" height="244" fill="white"/>
<rect x="47.5" y="622.5" width="1125" height="113" rx="28.5" fill="white" stroke="#2D2D2D" stroke-width="3"/>
<g filter="url(#filter0_d)">
<path d="M188.489 686.996C188.489 684.98 187.265 683.396 185.393 682.82C187.193 682.172 188.201 680.624 188.201 678.86C188.201 675.764 185.429 674.072 181.937 674.072C179.489 674.072 177.401 674.576 175.457 675.98L176.933 677.708C178.373 676.7 179.921 676.232 181.685 676.232C184.097 676.232 185.681 677.132 185.681 678.932C185.681 680.768 184.313 681.776 182.369 681.776H179.741V683.936H182.333C184.493 683.936 185.969 684.908 185.969 686.888C185.969 688.832 183.629 689.948 181.505 689.948C179.309 689.948 177.905 689.444 176.321 687.968L174.701 689.66C176.789 691.568 178.949 692.18 181.793 692.18C185.357 692.18 188.489 690.2 188.489 686.996ZM207.517 683.144C207.517 680.408 207.157 677.888 205.357 676.088C204.133 674.828 202.441 674.072 200.281 674.072C198.121 674.072 196.429 674.828 195.205 676.088C193.405 677.888 193.045 680.408 193.045 683.144C193.045 685.88 193.405 688.364 195.205 690.2C196.429 691.46 198.121 692.216 200.281 692.216C202.441 692.216 204.133 691.46 205.357 690.2C207.157 688.364 207.517 685.88 207.517 683.144ZM204.925 683.144C204.925 685.124 204.817 687.284 203.521 688.616C202.657 689.48 201.541 689.912 200.281 689.912C199.021 689.912 197.941 689.48 197.077 688.616C195.745 687.284 195.637 685.124 195.637 683.144C195.637 681.128 195.781 678.968 197.077 677.672C197.941 676.808 199.021 676.376 200.281 676.376C201.541 676.376 202.657 676.808 203.521 677.672C204.817 678.968 204.925 681.128 204.925 683.144ZM225.544 692V674.288H214.204V681.884C214.204 689.264 212.044 689.768 210.46 689.768H209.884V692H211.072C214.312 692 216.688 690.056 216.688 682.64V676.52H222.952V692H225.544ZM245.556 683.144C245.556 680.408 245.196 677.888 243.396 676.088C242.172 674.828 240.48 674.072 238.32 674.072C236.16 674.072 234.468 674.828 233.244 676.088C231.444 677.888 231.084 680.408 231.084 683.144C231.084 685.88 231.444 688.364 233.244 690.2C234.468 691.46 236.16 692.216 238.32 692.216C240.48 692.216 242.172 691.46 243.396 690.2C245.196 688.364 245.556 685.88 245.556 683.144ZM242.964 683.144C242.964 685.124 242.856 687.284 241.56 688.616C240.696 689.48 239.58 689.912 238.32 689.912C237.06 689.912 235.98 689.48 235.116 688.616C233.784 687.284 233.676 685.124 233.676 683.144C233.676 681.128 233.82 678.968 235.116 677.672C235.98 676.808 237.06 676.376 238.32 676.376C239.58 676.376 240.696 676.808 241.56 677.672C242.856 678.968 242.964 681.128 242.964 683.144ZM262.562 676.52V674.288H248.09V676.52H254.174V692H256.766V676.52H262.562ZM279.693 683.144C279.693 680.408 279.333 677.888 277.533 676.088C276.309 674.828 274.617 674.072 272.457 674.072C270.297 674.072 268.605 674.828 267.381 676.088C265.581 677.888 265.221 680.408 265.221 683.144C265.221 685.88 265.581 688.364 267.381 690.2C268.605 691.46 270.297 692.216 272.457 692.216C274.617 692.216 276.309 691.46 277.533 690.2C279.333 688.364 279.693 685.88 279.693 683.144ZM277.101 683.144C277.101 685.124 276.993 687.284 275.697 688.616C274.833 689.48 273.717 689.912 272.457 689.912C271.197 689.912 270.117 689.48 269.253 688.616C267.921 687.284 267.813 685.124 267.813 683.144C267.813 681.128 267.957 678.968 269.253 677.672C270.117 676.808 271.197 676.376 272.457 676.376C273.717 676.376 274.833 676.808 275.697 677.672C276.993 678.968 277.101 681.128 277.101 683.144ZM297.667 666.656H295.363C295.219 668.456 294.175 669.356 292.411 669.356C290.647 669.356 289.603 668.456 289.459 666.656H287.155C287.371 669.896 289.423 671.192 292.411 671.192C295.399 671.192 297.451 669.896 297.667 666.656ZM299.539 692V674.288H296.947L287.839 687.932V674.288H285.283V692H287.839L296.947 678.284V692H299.539Z" fill="#2D2D2D"/>
</g>
<g filter="url(#filter1_d)">
<path d="M560.693 692V674.288H546.977V692H549.533V676.52H558.101V692H560.693ZM585.953 692V674.288H583.361V692H585.953ZM580.517 686.672C580.517 683.432 578.285 681.308 574.901 681.308H569.573V674.288H567.017V692H574.901C578.285 692 580.517 689.876 580.517 686.672ZM577.925 686.672C577.925 688.652 576.773 689.768 574.613 689.768H569.573V683.576H574.613C576.773 683.576 577.925 684.692 577.925 686.672ZM605.997 692V674.288H594.657V681.884C594.657 689.264 592.497 689.768 590.913 689.768H590.337V692H591.525C594.765 692 597.141 690.056 597.141 682.64V676.52H603.405V692H605.997ZM626.045 683.828V682.676C626.045 677.348 623.381 674.072 618.773 674.072C614.273 674.072 611.501 677.384 611.501 683.144C611.501 689.408 614.525 692.216 619.241 692.216C622.229 692.216 623.921 691.28 625.721 689.48L623.957 687.932C622.553 689.336 621.365 689.948 619.313 689.948C615.893 689.948 614.093 687.716 614.093 683.828H626.045ZM623.489 681.884H614.093C614.165 680.444 614.201 679.868 614.633 678.932C615.389 677.312 616.865 676.268 618.773 676.268C620.681 676.268 622.157 677.312 622.913 678.932C623.345 679.868 623.381 680.444 623.489 681.884ZM644.271 689.588L642.507 687.896C641.571 688.868 641.139 689.228 640.419 689.552C639.843 689.804 639.231 689.912 638.475 689.912C634.983 689.912 633.183 687.608 633.183 683.144C633.183 678.68 635.019 676.376 638.511 676.376C639.267 676.376 639.915 676.52 640.491 676.772C641.175 677.06 641.607 677.42 642.507 678.356L644.271 676.7C643.083 675.476 642.507 675.044 641.535 674.612C640.671 674.252 639.699 674.072 638.547 674.072C633.579 674.072 630.591 677.492 630.591 683.144C630.591 688.796 633.579 692.216 638.547 692.216C639.699 692.216 640.671 692.036 641.535 691.676C642.507 691.244 643.083 690.812 644.271 689.588ZM662.22 683.144C662.22 680.408 661.86 677.888 660.06 676.088C658.836 674.828 657.144 674.072 654.984 674.072C652.824 674.072 651.132 674.828 649.908 676.088C648.108 677.888 647.748 680.408 647.748 683.144C647.748 685.88 648.108 688.364 649.908 690.2C651.132 691.46 652.824 692.216 654.984 692.216C657.144 692.216 658.836 691.46 660.06 690.2C661.86 688.364 662.22 685.88 662.22 683.144ZM659.628 683.144C659.628 685.124 659.52 687.284 658.224 688.616C657.36 689.48 656.244 689.912 654.984 689.912C653.724 689.912 652.644 689.48 651.78 688.616C650.448 687.284 650.34 685.124 650.34 683.144C650.34 681.128 650.484 678.968 651.78 677.672C652.644 676.808 653.724 676.376 654.984 676.376C656.244 676.376 657.36 676.808 658.224 677.672C659.52 678.968 659.628 681.128 659.628 683.144ZM680.482 689.588L678.718 687.896C677.782 688.868 677.35 689.228 676.63 689.552C676.054 689.804 675.442 689.912 674.686 689.912C671.194 689.912 669.394 687.608 669.394 683.144C669.394 678.68 671.23 676.376 674.722 676.376C675.478 676.376 676.126 676.52 676.702 676.772C677.386 677.06 677.818 677.42 678.718 678.356L680.482 676.7C679.294 675.476 678.718 675.044 677.746 674.612C676.882 674.252 675.91 674.072 674.758 674.072C669.79 674.072 666.802 677.492 666.802 683.144C666.802 688.796 669.79 692.216 674.758 692.216C675.91 692.216 676.882 692.036 677.746 691.676C678.718 691.244 679.294 690.812 680.482 689.588Z" fill="#2D2D2D"/>
</g>
<g filter="url(#filter2_d)">
<path d="M896.469 689.588L894.705 687.896C893.769 688.868 893.337 689.228 892.617 689.552C892.041 689.804 891.429 689.912 890.673 689.912C887.181 689.912 885.381 687.608 885.381 683.144C885.381 678.68 887.217 676.376 890.709 676.376C891.465 676.376 892.113 676.52 892.689 676.772C893.373 677.06 893.805 677.42 894.705 678.356L896.469 676.7C895.281 675.476 894.705 675.044 893.733 674.612C892.869 674.252 891.897 674.072 890.745 674.072C885.777 674.072 882.789 677.492 882.789 683.144C882.789 688.796 885.777 692.216 890.745 692.216C891.897 692.216 892.869 692.036 893.733 691.676C894.705 691.244 895.281 690.812 896.469 689.588ZM924.09 692V674.288H910.374V692H912.93V676.52H921.498V692H924.09ZM943.914 683.144C943.914 680.408 943.554 677.888 941.754 676.088C940.53 674.828 938.838 674.072 936.678 674.072C934.518 674.072 932.826 674.828 931.602 676.088C929.802 677.888 929.442 680.408 929.442 683.144C929.442 685.88 929.802 688.364 931.602 690.2C932.826 691.46 934.518 692.216 936.678 692.216C938.838 692.216 940.53 691.46 941.754 690.2C943.554 688.364 943.914 685.88 943.914 683.144ZM941.322 683.144C941.322 685.124 941.214 687.284 939.918 688.616C939.054 689.48 937.938 689.912 936.678 689.912C935.418 689.912 934.338 689.48 933.474 688.616C932.142 687.284 932.034 685.124 932.034 683.144C932.034 681.128 932.178 678.968 933.474 677.672C934.338 676.808 935.418 676.376 936.678 676.376C937.938 676.376 939.054 676.808 939.918 677.672C941.214 678.968 941.322 681.128 941.322 683.144ZM964.353 697.292V689.768H961.725V674.288H950.601V677.672C950.601 684.116 949.593 686.816 948.261 689.768H946.173V697.292H948.657V692H961.833V697.292H964.353ZM959.133 689.768H951.069C952.221 687.14 953.049 684.548 953.085 679.868V676.52H959.133V689.768ZM980.949 689.588L979.185 687.896C978.249 688.868 977.817 689.228 977.097 689.552C976.521 689.804 975.909 689.912 975.153 689.912C971.661 689.912 969.861 687.608 969.861 683.144C969.861 678.68 971.697 676.376 975.189 676.376C975.945 676.376 976.593 676.52 977.169 676.772C977.853 677.06 978.285 677.42 979.185 678.356L980.949 676.7C979.761 675.476 979.185 675.044 978.213 674.612C977.349 674.252 976.377 674.072 975.225 674.072C970.257 674.072 967.269 677.492 967.269 683.144C967.269 688.796 970.257 692.216 975.225 692.216C976.377 692.216 977.349 692.036 978.213 691.676C979.185 691.244 979.761 690.812 980.949 689.588ZM999.642 687.104C999.642 684.944 998.454 683.54 996.546 682.82C998.346 682.172 999.354 680.84 999.354 678.932C999.354 676.124 997.266 674.288 994.134 674.288H985.926V692H994.35C997.662 692 999.642 690.128 999.642 687.104ZM996.798 679.148C996.798 680.84 995.718 681.812 993.666 681.812H988.482V676.52H993.666C995.682 676.52 996.798 677.456 996.798 679.148ZM997.086 686.852C997.086 688.616 995.898 689.768 993.882 689.768H988.482V683.936H993.882C995.898 683.936 997.086 685.088 997.086 686.852ZM1018.69 683.828V682.676C1018.69 677.348 1016.03 674.072 1011.42 674.072C1006.92 674.072 1004.15 677.384 1004.15 683.144C1004.15 689.408 1007.17 692.216 1011.89 692.216C1014.88 692.216 1016.57 691.28 1018.37 689.48L1016.6 687.932C1015.2 689.336 1014.01 689.948 1011.96 689.948C1008.54 689.948 1006.74 687.716 1006.74 683.828H1018.69ZM1016.14 681.884H1006.74C1006.81 680.444 1006.85 679.868 1007.28 678.932C1008.04 677.312 1009.51 676.268 1011.42 676.268C1013.33 676.268 1014.8 677.312 1015.56 678.932C1015.99 679.868 1016.03 680.444 1016.14 681.884ZM1035.66 676.52V674.288H1021.19V676.52H1027.27V692H1029.87V676.52H1035.66ZM1041.99 692V674.288H1039.4V692H1041.99ZM1053.77 692L1045.09 682.64L1053.05 674.288H1049.84L1042.03 682.82L1050.42 692H1053.77ZM1070.05 683.144C1070.05 680.408 1069.69 677.888 1067.89 676.088C1066.67 674.828 1064.98 674.072 1062.82 674.072C1060.66 674.072 1058.97 674.828 1057.74 676.088C1055.94 677.888 1055.58 680.408 1055.58 683.144C1055.58 685.88 1055.94 688.364 1057.74 690.2C1058.97 691.46 1060.66 692.216 1062.82 692.216C1064.98 692.216 1066.67 691.46 1067.89 690.2C1069.69 688.364 1070.05 685.88 1070.05 683.144ZM1067.46 683.144C1067.46 685.124 1067.35 687.284 1066.06 688.616C1065.19 689.48 1064.08 689.912 1062.82 689.912C1061.56 689.912 1060.48 689.48 1059.61 688.616C1058.28 687.284 1058.17 685.124 1058.17 683.144C1058.17 681.128 1058.32 678.968 1059.61 677.672C1060.48 676.808 1061.56 676.376 1062.82 676.376C1064.08 676.376 1065.19 676.808 1066.06 677.672C1067.35 678.968 1067.46 681.128 1067.46 683.144ZM1088.03 666.656H1085.72C1085.58 668.456 1084.54 669.356 1082.77 669.356C1081.01 669.356 1079.96 668.456 1079.82 666.656H1077.52C1077.73 669.896 1079.78 671.192 1082.77 671.192C1085.76 671.192 1087.81 669.896 1088.03 666.656ZM1089.9 692V674.288H1087.31L1078.2 687.932V674.288H1075.64V692H1078.2L1087.31 678.284V692H1089.9Z" fill="#2D2D2D"/>
</g>
<path d="M497.399 314V268.432H488.503V314H497.399ZM524.343 314L507.511 289.808L522.807 268.432H512.183L497.463 290.128L513.463 314H524.343ZM553.951 314V292.048C553.951 284.24 549.151 280.272 539.743 280.272C534.175 280.272 531.039 281.424 527.775 285.008L533.023 290.192C534.815 288.144 536.415 287.312 539.423 287.312C543.839 287.312 545.631 288.912 545.631 292.56V294.224H537.887C530.015 294.224 526.367 298.576 526.367 303.888C526.367 306.832 527.327 309.52 529.119 311.376C531.039 313.296 533.855 314.32 537.631 314.32C541.471 314.32 543.583 313.36 545.823 311.12V314H553.951ZM545.631 301.712C545.631 303.824 545.311 305.104 544.351 305.936C542.943 307.28 541.471 307.536 539.423 307.536C535.967 307.536 534.367 306.064 534.367 303.76C534.367 301.264 535.967 299.92 539.295 299.92H545.631V301.712ZM571.306 314V280.656H562.922V314H571.306ZM592.81 314L580.266 296.208L592.042 280.656H582.314L571.37 296.528L582.826 314H592.81ZM635.793 288.016V280.656H608.017V288.016H617.809V314H626.193V288.016H635.793ZM668.252 299.92V296.4C668.252 286.928 663.004 280.272 653.724 280.272C645.084 280.272 639.196 286.416 639.196 297.296C639.196 310.8 646.748 314.384 654.62 314.384C660.636 314.384 663.9 312.592 667.292 309.136L662.236 304.208C660.124 306.256 658.332 307.344 654.684 307.344C649.948 307.344 647.388 304.272 647.388 299.92H668.252ZM660.06 294.224H647.388C647.452 292.752 647.58 291.856 648.156 290.64C649.052 288.656 650.908 287.184 653.724 287.184C656.54 287.184 658.396 288.656 659.292 290.64C659.868 291.856 659.996 292.752 660.06 294.224ZM689.17 306.896C687.57 306.896 686.162 306.448 685.202 305.296C683.986 303.952 683.346 301.392 683.346 297.296C683.346 293.648 683.986 291.088 685.01 289.744C686.034 288.464 687.506 288.016 689.17 288.016C690.834 288.016 692.306 288.528 693.266 289.808C694.354 291.152 694.93 293.712 694.93 297.36C694.93 301.264 694.29 303.888 693.202 305.232C692.178 306.448 690.77 306.896 689.17 306.896ZM689.298 314.384C693.266 314.384 696.786 313.04 699.154 310.544C702.034 307.536 703.25 303.824 703.25 297.168C703.25 291.472 701.97 286.416 699.026 283.664C697.17 282 694.994 280.976 690.834 280.976C687.186 280.976 683.794 282.64 682.514 284.816C682.514 280.784 683.666 278.736 686.738 277.136C690.514 275.152 696.146 275.536 700.37 275.216V268.048C690.514 268.112 684.498 268.56 680.338 271.76C676.114 275.088 675.026 278.928 675.026 294.544C675.026 300.752 675.73 306.064 677.714 309.2C679.954 312.72 684.37 314.384 689.298 314.384ZM738.377 299.92V296.4C738.377 286.928 733.129 280.272 723.849 280.272C715.209 280.272 709.321 286.416 709.321 297.296C709.321 310.8 716.873 314.384 724.745 314.384C730.761 314.384 734.025 312.592 737.417 309.136L732.361 304.208C730.249 306.256 728.457 307.344 724.809 307.344C720.073 307.344 717.513 304.272 717.513 299.92H738.377ZM730.185 294.224H717.513C717.577 292.752 717.705 291.856 718.281 290.64C719.177 288.656 721.033 287.184 723.849 287.184C726.665 287.184 728.521 288.656 729.417 290.64C729.993 291.856 730.121 292.752 730.185 294.224ZM784.73 288.016V280.656H756.954V288.016H766.746V314H775.13V288.016H784.73ZM815.013 314V292.048C815.013 284.24 810.213 280.272 800.805 280.272C795.237 280.272 792.101 281.424 788.837 285.008L794.085 290.192C795.877 288.144 797.477 287.312 800.485 287.312C804.901 287.312 806.693 288.912 806.693 292.56V294.224H798.949C791.077 294.224 787.429 298.576 787.429 303.888C787.429 306.832 788.389 309.52 790.181 311.376C792.101 313.296 794.917 314.32 798.693 314.32C802.533 314.32 804.645 313.36 806.885 311.12V314H815.013ZM806.693 301.712C806.693 303.824 806.373 305.104 805.413 305.936C804.005 307.28 802.533 307.536 800.485 307.536C797.029 307.536 795.429 306.064 795.429 303.76C795.429 301.264 797.029 299.92 800.357 299.92H806.693V301.712ZM832.369 314V280.656H823.985V314H832.369ZM853.873 314L841.329 296.208L853.104 280.656H843.377L832.433 296.528L843.889 314H853.873ZM883.738 297.296C883.738 291.28 882.97 287.568 879.962 284.368C877.85 282.128 874.522 280.272 869.594 280.272C864.666 280.272 861.402 282.192 859.29 284.368C856.282 287.568 855.514 291.28 855.514 297.296C855.514 303.312 856.282 307.088 859.29 310.288C861.402 312.464 864.666 314.384 869.594 314.384C874.522 314.384 877.85 312.464 879.962 310.288C883.034 307.152 883.738 303.312 883.738 297.296ZM875.418 297.296C875.418 300.752 875.226 303.76 873.498 305.424C872.538 306.384 871.258 306.896 869.594 306.896C867.994 306.896 866.714 306.384 865.754 305.424C864.026 303.76 863.834 300.752 863.834 297.296C863.834 293.904 864.026 290.896 865.754 289.232C866.714 288.272 867.994 287.76 869.594 287.76C871.258 287.76 872.538 288.272 873.498 289.232C875.226 290.896 875.418 293.904 875.418 297.296ZM919.064 299.92V296.4C919.064 286.928 913.816 280.272 904.536 280.272C895.896 280.272 890.008 286.416 890.008 297.296C890.008 310.8 897.56 314.384 905.432 314.384C911.448 314.384 914.712 312.592 918.104 309.136L913.048 304.208C910.936 306.256 909.144 307.344 905.496 307.344C900.76 307.344 898.2 304.272 898.2 299.92H919.064ZM910.872 294.224H898.2C898.264 292.752 898.392 291.856 898.968 290.64C899.864 288.656 901.72 287.184 904.536 287.184C907.352 287.184 909.208 288.656 910.104 290.64C910.68 291.856 910.808 292.752 910.872 294.224ZM573.591 394V348.432H565.655L547.927 377.616V348.432H539.031V394H546.967L564.695 364.752V394H573.591ZM610.778 394V360.656H586.394V374.16C586.394 386.128 583.642 386.64 580.826 386.64H579.802V394H583.77C590.554 394 594.458 390.288 594.458 376.016V368.016H602.458V394H610.778ZM646.957 377.296C646.957 371.28 646.189 367.568 643.181 364.368C641.069 362.128 637.741 360.272 632.813 360.272C627.885 360.272 624.621 362.192 622.509 364.368C619.501 367.568 618.733 371.28 618.733 377.296C618.733 383.312 619.501 387.088 622.509 390.288C624.621 392.464 627.885 394.384 632.813 394.384C637.741 394.384 641.069 392.464 643.181 390.288C646.253 387.152 646.957 383.312 646.957 377.296ZM638.637 377.296C638.637 380.752 638.445 383.76 636.717 385.424C635.757 386.384 634.477 386.896 632.813 386.896C631.213 386.896 629.933 386.384 628.973 385.424C627.245 383.76 627.053 380.752 627.053 377.296C627.053 373.904 627.245 370.896 628.973 369.232C629.933 368.272 631.213 367.76 632.813 367.76C634.477 367.76 635.757 368.272 636.717 369.232C638.445 370.896 638.637 373.904 638.637 377.296ZM682.283 394V360.656H673.899V373.264H663.211V360.656H654.827V394H663.211V380.624H673.899V394H682.283ZM748.373 394V348.432H739.605L727.765 373.072L715.861 348.432H707.093V394H715.989V367.44L724.757 384.72H730.773L739.477 367.44V394H748.373ZM783.544 394V372.048C783.544 364.24 778.744 360.272 769.336 360.272C763.768 360.272 760.632 361.424 757.368 365.008L762.616 370.192C764.408 368.144 766.008 367.312 769.016 367.312C773.432 367.312 775.224 368.912 775.224 372.56V374.224H767.48C759.608 374.224 755.96 378.576 755.96 383.888C755.96 386.832 756.92 389.52 758.712 391.376C760.632 393.296 763.448 394.32 767.224 394.32C771.064 394.32 773.176 393.36 775.416 391.12V394H783.544ZM775.224 381.712C775.224 383.824 774.904 385.104 773.944 385.936C772.536 387.28 771.064 387.536 769.016 387.536C765.56 387.536 763.96 386.064 763.96 383.76C763.96 381.264 765.56 379.92 768.888 379.92H775.224V381.712ZM816.772 389.84L811.14 384.272C809.412 386.128 807.94 386.896 805.764 386.896C803.78 386.896 802.244 386.192 801.028 384.72C799.748 383.12 799.172 380.816 799.172 377.296C799.172 373.776 799.748 371.536 801.028 369.936C802.244 368.464 803.78 367.76 805.764 367.76C807.94 367.76 809.412 368.528 811.14 370.384L816.772 364.752C813.828 361.68 810.372 360.272 805.764 360.272C799.108 360.272 790.852 363.792 790.852 377.296C790.852 390.8 799.108 394.384 805.764 394.384C810.372 394.384 813.828 392.912 816.772 389.84ZM831.65 394V360.656H823.266V394H831.65ZM853.154 394L840.61 376.208L852.386 360.656H842.658L831.714 376.528L843.17 394H853.154ZM883.949 360.848C883.949 352.72 877.677 348.048 870.445 348.048C863.021 348.048 857.005 352.912 857.005 360.848H865.325C865.325 357.904 867.053 355.536 870.445 355.536C873.645 355.536 875.629 357.776 875.629 360.784C875.629 362.192 874.797 363.728 873.773 365.072L869.037 371.152C867.373 373.328 866.605 375.056 866.605 377.808V379.728H874.925V378.384C874.925 377.296 875.437 375.952 876.077 375.12L880.813 368.848C882.605 366.48 883.949 364.048 883.949 360.848ZM875.181 394V385.488H866.349V394H875.181Z" fill="#2D2D2D"/>
</g>
<defs>
<filter id="filter0_d" x="170.701" y="666.656" width="132.837" height="33.56" filterUnits="userSpaceOnUse" color-interpolation-filters="sRGB">
<feFlood flood-opacity="0" result="BackgroundImageFix"/>
<feColorMatrix in="SourceAlpha" type="matrix" values="0 0 0 0 0 0 0 0 0 0 0 0 0 0 0 0 0 0 127 0"/>
<feOffset dy="4"/>
<feGaussianBlur stdDeviation="2"/>
<feColorMatrix type="matrix" values="0 0 0 0 0 0 0 0 0 0 0 0 0 0 0 0 0 0 0.25 0"/>
<feBlend mode="normal" in2="BackgroundImageFix" result="effect1_dropShadow"/>
<feBlend mode="normal" in="SourceGraphic" in2="effect1_dropShadow" result="shape"/>
</filter>
<filter id="filter1_d" x="542.977" y="674.072" width="141.505" height="26.144" filterUnits="userSpaceOnUse" color-interpolation-filters="sRGB">
<feFlood flood-opacity="0" result="BackgroundImageFix"/>
<feColorMatrix in="SourceAlpha" type="matrix" values="0 0 0 0 0 0 0 0 0 0 0 0 0 0 0 0 0 0 127 0"/>
<feOffset dy="4"/>
<feGaussianBlur stdDeviation="2"/>
<feColorMatrix type="matrix" values="0 0 0 0 0 0 0 0 0 0 0 0 0 0 0 0 0 0 0.25 0"/>
<feBlend mode="normal" in2="BackgroundImageFix" result="effect1_dropShadow"/>
<feBlend mode="normal" in="SourceGraphic" in2="effect1_dropShadow" result="shape"/>
</filter>
<filter id="filter2_d" x="878.789" y="666.656" width="215.112" height="38.636" filterUnits="userSpaceOnUse" color-interpolation-filters="sRGB">
<feFlood flood-opacity="0" result="BackgroundImageFix"/>
<feColorMatrix in="SourceAlpha" type="matrix" values="0 0 0 0 0 0 0 0 0 0 0 0 0 0 0 0 0 0 127 0"/>
<feOffset dy="4"/>
<feGaussianBlur stdDeviation="2"/>
<feColorMatrix type="matrix" values="0 0 0 0 0 0 0 0 0 0 0 0 0 0 0 0 0 0 0.25 0"/>
<feBlend mode="normal" in2="BackgroundImageFix" result="effect1_dropShadow"/>
<feBlend mode="normal" in="SourceGraphic" in2="effect1_dropShadow" result="shape"/>
</filter>
<clipPath id="clip0">
<rect width="1200" height="800" fill="white"/>
</clipPath>
<clipPath id="clip1">
<rect width="508.16" height="769.713" fill="white" transform="translate(35.8042 60) rotate(1.92117)"/>
</clipPath>
</defs>
</svg>
