<svg width="597" height="1720" viewBox="0 0 597 1720" fill="none" xmlns="http://www.w3.org/2000/svg">
<path d="M300.374 267.254C301.743 269.82 299.424 268.52 304.898 272.6C311.302 277.367 324.891 274.101 319.293 268.076C312.712 260.982 304.923 264.881 321.349 274.656C342.683 287.348 350.724 262.014 346.849 265.197C342.975 268.381 345.681 276.848 351.374 271.778C357.066 266.707 358.222 263.462 361.656 264.375C365.09 265.288 375.919 281.969 386.333 286.172C396.747 290.375 410.772 281.121 409.777 274.245C408.781 267.369 407.811 266.801 404.841 275.068C401.872 283.334 402.312 287.85 401.14 300.977C399.967 314.104 401.14 318.961 388.801 334.7C376.462 350.439 365.941 362.337 368.648 349.917C370.244 342.609 376.68 335.087 381.398 323.596C387.078 309.77 382.804 303.749 376.462 307.557C370.12 311.365 364.917 302.918 353.841 301.388C342.765 299.858 341.63 302.026 333.688 302.211C325.746 302.396 326.61 283.585 332.043 282.059C337.476 280.533 338.093 287.451 339.035 292.341C340.927 302.12 337.501 304.798 325.462 302.622C315.53 300.825 309.912 304.765 302.019 310.436C294.126 316.107 286.702 322.095 283.511 318.25C280.319 314.405 284.893 314.639 298.317 319.484C311.742 324.328 319.161 327.647 329.164 324.008C339.167 320.368 344.427 324.164 350.962 323.596C357.498 323.029 363.531 316.547 368.236 312.904C372.942 309.26 378.445 313.27 373.583 313.315C368.722 313.36 367.377 314.581 357.543 310.436C351.32 307.808 350.074 305.624 343.148 308.791C335.033 312.492 333.055 313.146 325.051 311.259C318.553 309.725 312.095 309.712 307.777 311.67C303.458 313.627 286.131 323.802 276.93 319.484C257.756 310.473 277.95 337.036 260.215 330.399C244.212 324.406 243.628 326.845 248.963 336.345C254.721 346.627 263.214 364.722 277.753 377.06C288.418 386.108 304.182 396.389 331.22 393.51C358.542 390.603 378.893 371.796 393.736 350.739C408.905 329.222 417.299 315.26 418.414 299.743C419.343 286.842 415.395 239.111 418.002 225.305C420.717 210.944 426.047 194.008 427.873 199.396C429.699 204.783 429.843 209.916 429.107 220.781C428.371 231.647 425.225 250.026 422.527 258.617C419.829 267.208 419.376 258.617 418.414 250.803C417.451 242.989 419.491 213.165 422.115 194.05C424.739 174.934 428.318 169.785 427.873 147.988C427.429 126.192 425.718 105.287 418.002 93.2909C410.287 81.2945 408.67 86.2378 404.019 66.1478C399.367 46.0578 394.074 35.0936 385.511 28.7232C376.948 22.3528 367.093 15.3984 350.962 11.4503C334.832 7.50218 309.159 0.210543 290.914 2.40256C272.669 4.59457 251.097 13.6341 242.382 19.6755C233.667 25.7169 236.328 22.6941 219.761 34.0695C203.194 45.445 189.416 50.8284 181.511 64.914C173.606 78.9997 169.234 100.41 172.052 121.257C173.697 133.45 171.665 138.324 174.959 159.816C179.562 189.838 189.404 198.306 181.511 199.396C173.619 200.486 183.156 210.438 191.382 224.483C199.608 238.527 197.181 240.982 200.019 252.86C202.857 264.737 210.746 279.065 209.068 291.107C207.389 303.148 199.674 295.68 193.85 289.05C188.026 282.421 191.238 271.115 185.624 259.851C180.01 248.587 173.61 230.24 172.052 219.548C170.493 208.855 192.085 201.576 196.318 217.08C200.55 232.585 213.374 247.925 209.89 230.652C206.406 213.379 222.92 200.502 230.043 188.292C237.167 176.082 247.079 171.899 255.543 167.729C264.008 163.559 271.308 163.086 283.922 173.487C296.536 183.887 306.893 192.882 296.261 188.703C285.629 184.525 274.105 176.028 259.245 180.067C244.385 184.105 233.116 186.071 232.1 191.582C231.084 197.093 228.723 219.169 235.39 217.903C242.057 216.636 245.639 213.35 254.721 206.799C263.802 200.247 274.203 196.805 281.734 200.334C288.948 203.722 302.895 209.381 297.495 209.266C292.094 209.151 279.982 210.414 269.527 212.145C265.879 212.75 264.945 213.556 258.591 214.407C252.236 215.258 248.276 216.332 252.253 212.556C258.369 206.753 262.424 201.041 274.051 202.275C285.678 203.509 292.6 208.686 289.269 209.677C285.937 210.669 263.621 214.872 262.946 210.089C261.713 201.189 274.981 199.092 276.93 205.565C280.159 216.258 253.799 210.652 241.971 219.136C230.142 227.621 228.205 234.9 235.39 229.829C242.575 224.758 246.396 219.214 254.721 222.426C263.045 225.638 277.374 226.099 285.156 223.249C292.938 220.399 301.085 218.663 302.019 213.379C302.953 208.094 304.487 195.941 307.366 199.396C310.245 202.85 315.415 232.223 317.648 242.167C320.391 254.373 324.154 277.617 333.277 277.124C342.399 276.63 343.341 269.594 342.325 257.795C341.503 248.159 331.146 212.355 334.511 197.751C337.875 183.147 343.061 182.946 359.188 172.664C375.315 162.383 374.274 161.038 383.454 168.14C392.634 175.243 405.154 192.873 401.14 191.171C397.125 189.468 385.696 180.26 375.64 178.422C365.584 176.583 354.035 181.712 347.672 186.647C341.309 191.582 337.493 201.863 339.035 205.565C340.577 209.266 346.668 211.619 348.495 209.677C360.73 196.686 368.734 198.865 372.946 200.243C377.157 201.621 381.653 204.072 389.212 208.444C396.772 212.815 396.204 206.688 391.269 203.509C386.333 200.329 374.932 195.834 363.712 197.34C352.492 198.845 348.231 200.905 344.382 204.331C340.532 207.757 345.204 209.41 353.512 209.217C361.717 209.032 362.042 209.287 369.392 208.892C373.316 208.682 373.678 203.887 372.682 201.428C371.342 198.137 362.112 197.998 361.286 202.431C359.965 209.476 368.689 208.11 371.905 208.131C379.576 208.176 385.729 207.267 394.156 212.556C402.583 217.845 400.58 222.373 394.567 218.314C388.554 214.255 389.159 213.28 381.406 216.669C373.653 220.058 368.845 222.385 363.309 221.604C353.603 220.23 345.796 213.959 345.624 213.79C345.451 213.621 343.411 210.615 348.503 209.677C353.595 208.74 374.106 208.921 378.938 208.855C383.771 208.789 392.823 210.586 402.793 210.5C412.763 210.414 417.809 202.012 417.188 189.937C416.567 177.862 405.725 147.861 402.793 139.763C399.86 131.666 394.234 115.663 393.333 106.04C392.433 96.4165 378.745 78.3951 363.309 69.8491C347.874 61.3032 341.988 59.2715 322.18 58.7451C302.373 58.2187 254.021 65.3746 240.334 73.9617C226.646 82.5488 210.869 99.2295 214.423 115.088C217.976 130.946 211.103 140.479 202.084 159.092C193.064 177.706 193.809 186.902 197.148 198.162C199.361 205.61 203.046 234.11 202.906 242.167C202.767 250.223 209.742 280.192 211.543 290.696C213.345 301.199 213.078 315.301 217.302 327.298C221.525 339.294 236.912 352.294 247.326 360.61C257.74 368.925 273.763 388.333 285.576 398.446C297.388 408.558 296.347 415.961 309.842 423.944C323.336 431.926 332.331 427.127 342.745 439.572C353.159 452.016 343.448 455.397 350.148 468.771C356.848 482.145 368.524 494.026 371.946 504.962C375.368 515.897 372.822 494.133 374.825 483.988C376.828 473.842 376.935 459.012 382.228 445.74C387.522 432.469 379.349 421.998 376.882 415.718C374.414 409.439 373.086 387.827 377.293 381.995C385.107 371.195 397.639 349.279 402.793 355.263C408.168 361.498 429.527 380.868 439.809 390.632C450.091 400.395 444.884 395.567 445.978 405.848C447.072 416.13 449.639 412.264 465.309 419.831C480.979 427.398 498.586 429.788 524.123 435.87C548.418 441.657 563.664 447.451 570.599 460.546C577.451 473.48 582.168 498.176 588.696 523.057C595.161 547.683 603.366 580.954 567.259 570.883C531.152 560.811 480.522 536.053 428.572 563.274C367.85 595.093 260.199 616.611 204.543 578.047C159.902 547.108 132.206 491.888 59.4447 491.888C29.0793 491.888 2 505.834 2 534.556V888.766C2 995.985 64.5365 976.364 108.787 947.925C158.162 916.172 260.886 870.164 338.57 889.851C416.254 909.538 487.375 994.891 470.964 1073.68C454.554 1152.48 400.938 1176.5 335.288 1209.33C269.638 1242.17 270.123 1307.86 270.123 1375.8C270.123 1428.15 298.502 1427.79 298.502 1397.51C298.502 1369.07 270.975 1347.19 239.125 1400.8C207.274 1454.42 159.129 1454.42 107.701 1450.04C56.2737 1445.66 2.66217 1462.07 2.66217 1509.12V1719.19" stroke="black" stroke-width="4" stroke-miterlimit="10"/>
</svg>
