<svg width="32" height="32" viewBox="0 0 32 32" fill="none" xmlns="http://www.w3.org/2000/svg">
<g clip-path="url(#clip0)">
<path d="M27.2653 27.2656C33.4871 21.0438 33.4871 10.9562 27.2653 4.73438C21.0434 -1.48746 10.9558 -1.48746 4.73401 4.73438C-1.48783 10.9562 -1.48783 21.0438 4.73401 27.2656C10.9558 33.4875 21.0434 33.4875 27.2653 27.2656Z" fill="#2D2D2D"/>
<path fill-rule="evenodd" clip-rule="evenodd" d="M25.0566 12.3689C25.0566 10.8724 23.8447 9.66052 22.3487 9.66052H9.65057C8.15526 9.66052 6.94312 10.8724 6.94312 12.3689V19.631C6.94312 21.1267 8.15526 22.3391 9.65057 22.3391H22.3487C23.8447 22.3391 25.0566 21.1267 25.0566 19.631V12.3689ZM14.1885 19.0635V12.2426L19.3623 15.6526L14.1885 19.0635Z" fill="white"/>
</g>
<defs>
<clipPath id="clip0">
<rect width="32" height="32" fill="white"/>
</clipPath>
</defs>
</svg>
