<?xml version="1.0" standalone="no"?>
<!DOCTYPE svg PUBLIC "-//W3C//DTD SVG 20010904//EN"
 "http://www.w3.org/TR/2001/REC-SVG-20010904/DTD/svg10.dtd">
<svg version="1.0" xmlns="http://www.w3.org/2000/svg"
 width="512.000000pt" height="512.000000pt" viewBox="0 0 512.000000 512.000000"
 preserveAspectRatio="xMidYMid meet">
<metadata>
Created by potrace 1.14, written by Peter Selinger 2001-2017
</metadata>
<g transform="translate(0.000000,512.000000) scale(0.100000,-0.100000)"
fill="#000000" stroke="none">
<path d="M1680 3439 l0 -551 -63 58 c-74 70 -173 124 -282 156 -69 19 -102 22
-245 22 -191 -1 -271 -17 -405 -83 -235 -117 -364 -330 -410 -679 -34 -259
-29 -788 11 -1017 19 -113 71 -267 115 -342 19 -32 68 -92 109 -134 61 -62 93
-85 170 -122 161 -79 330 -108 518 -89 181 18 303 71 428 185 l64 59 0 -111 0
-111 295 0 295 0 0 1655 0 1655 -300 0 -300 0 0 -551z m-255 -880 c193 -72
267 -292 252 -749 -12 -348 -68 -492 -221 -570 -68 -34 -71 -35 -190 -35 -117
0 -124 1 -188 33 -101 50 -160 137 -196 294 -25 112 -25 610 1 723 46 196 137
297 296 325 66 12 184 2 246 -21z"/>
<path d="M3530 3119 c-89 -11 -202 -38 -283 -69 -81 -30 -219 -126 -295 -203
l-63 -64 190 -185 189 -185 63 59 c119 111 251 154 449 145 129 -6 203 -25
271 -68 93 -59 129 -141 136 -311 l6 -118 -299 0 c-330 -1 -452 -9 -576 -40
-207 -52 -377 -182 -457 -350 -68 -140 -87 -310 -57 -480 43 -234 162 -403
349 -495 153 -75 219 -88 447 -89 158 -1 207 2 260 17 93 25 195 79 270 142
l65 54 3 -100 3 -99 295 0 295 0 -3 893 c-3 889 -3 892 -26 971 -88 315 -308
494 -687 562 -107 19 -435 27 -545 13z m660 -1516 c0 -187 -24 -265 -102 -339
-90 -87 -206 -120 -382 -111 -128 6 -194 28 -257 85 -39 35 -52 56 -65 100
-30 101 -5 222 58 278 82 74 127 83 466 83 l282 1 0 -97z"/>
</g>
</svg>
